<svg width="1177" height="126" viewBox="0 0 1177 126" fill="none" xmlns="http://www.w3.org/2000/svg">
<path d="M68.2064 43.6348C67.9379 40.2781 66.6791 37.6598 64.43 35.78C62.2146 33.9002 58.841 32.9603 54.3094 32.9603C51.4225 32.9603 49.056 33.3128 47.2098 34.0177C45.3971 34.6891 44.0544 35.6122 43.1817 36.787C42.3089 37.9619 41.8558 39.3046 41.8222 40.8152C41.7551 42.0572 41.9732 43.1817 42.4768 44.1887C43.0138 45.1622 43.853 46.0517 44.9943 46.8573C46.1356 47.6294 47.5958 48.3343 49.3749 48.9721C51.154 49.6099 53.2688 50.1805 55.7192 50.6841L64.1783 52.4967C69.8848 53.7052 74.7689 55.2996 78.8306 57.2801C82.8923 59.2606 86.2155 61.5936 88.8002 64.279C91.3849 66.9308 93.2815 69.9184 94.4899 73.2416C95.7319 76.5648 96.3697 80.1901 96.4033 84.1175C96.3697 90.8982 94.6745 96.6383 91.3178 101.338C87.961 106.037 83.1608 109.612 76.9172 112.063C70.7072 114.513 63.2384 115.738 54.5108 115.738C45.5482 115.738 37.7269 114.412 31.047 111.761C24.4005 109.109 19.2311 105.03 15.5387 99.5251C11.8798 93.9864 10.0336 86.9036 10 78.2767H36.5856C36.7535 81.4321 37.5423 84.0839 38.9521 86.2323C40.362 88.3806 42.3425 90.0086 44.8936 91.1164C47.4783 92.2241 50.5498 92.778 54.108 92.778C57.0955 92.778 59.5963 92.4087 61.6104 91.6702C63.6244 90.9317 65.1517 89.9079 66.1923 88.5988C67.2329 87.2896 67.77 85.7959 67.8036 84.1175C67.77 82.5398 67.2497 81.1635 66.2427 79.9887C65.2692 78.7802 63.658 77.7061 61.4089 76.7662C59.1599 75.7927 56.122 74.8864 52.2953 74.0472L42.0236 71.8317C32.8932 69.8512 25.6929 66.5448 20.4228 61.9125C15.1862 57.2466 12.5847 50.8855 12.6183 42.8292C12.5847 36.2835 14.3302 30.5602 17.8548 25.6593C21.413 20.7249 26.3307 16.8814 32.6079 14.1288C38.9186 11.3763 46.1524 10 54.3094 10C62.6342 10 69.8344 11.3931 75.9102 14.1792C81.986 16.9653 86.6686 20.8927 89.9583 25.9614C93.2815 30.9966 94.9599 36.8877 94.9934 43.6348H68.2064Z" fill="white"/>
<path d="M102.823 11.4098H134.041L154.182 53.3023H154.987L175.128 11.4098H206.346L168.482 82.1034V114.53H140.687V82.1034L102.823 11.4098Z" fill="white"/>
<path d="M304.695 11.4098V114.53H281.332L244.072 60.3516H243.468V114.53H215.472V11.4098H239.238L275.894 65.3867H276.7V11.4098H304.695Z" fill="white"/>
<path d="M414.21 50.0798H385.811C385.61 47.7301 385.073 45.5986 384.2 43.6852C383.361 41.7718 382.186 40.127 380.676 38.7507C379.199 37.3409 377.403 36.2667 375.288 35.5282C373.173 34.7562 370.773 34.3702 368.088 34.3702C363.388 34.3702 359.41 35.5115 356.154 37.7941C352.932 40.0767 350.481 43.3495 348.803 47.6126C347.158 51.8757 346.336 56.9948 346.336 62.9698C346.336 69.2806 347.175 74.5675 348.853 78.8306C350.565 83.0601 353.033 86.2491 356.255 88.3974C359.478 90.5121 363.355 91.5695 367.886 91.5695C370.471 91.5695 372.787 91.2506 374.835 90.6129C376.882 89.9415 378.662 88.9848 380.172 87.7428C381.683 86.5008 382.908 85.007 383.848 83.2615C384.821 81.4824 385.476 79.4852 385.811 77.2697L414.21 77.4711C413.874 81.8349 412.649 86.2826 410.534 90.8143C408.419 95.3123 405.415 99.4747 401.521 103.301C397.661 107.095 392.877 110.149 387.171 112.465C381.464 114.782 374.835 115.94 367.282 115.94C357.816 115.94 349.323 113.909 341.804 109.847C334.319 105.785 328.394 99.8104 324.03 91.922C319.7 84.0336 317.535 74.3829 317.535 62.9698C317.535 51.4897 319.75 41.8222 324.181 33.9673C328.612 26.0789 334.587 20.1207 342.106 16.0925C349.625 12.0308 358.017 10 367.282 10C373.794 10 379.786 10.8895 385.258 12.6686C390.729 14.4477 395.529 17.0492 399.658 20.4731C403.787 23.8635 407.11 28.0426 409.628 33.0107C412.145 37.9787 413.673 43.6684 414.21 50.0798Z" fill="white"/>
<path d="M455.158 11.4098H490.001L513.969 69.8177H515.177L539.145 11.4098H573.988V114.53H546.597V54.9136H545.791L522.831 113.724H506.315L483.355 54.5108H482.549V114.53H455.158V11.4098Z" fill="white"/>
<path d="M587.255 114.53V11.4098H661.574V33.9673H615.251V51.6911H657.748V74.2486H615.251V91.9723H661.373V114.53H587.255Z" fill="white"/>
<path d="M672.639 33.9673V11.4098H762.265V33.9673H731.248V114.53H703.656V33.9673H672.639Z" fill="white"/>
<path d="M772.801 114.53V11.4098H800.796V51.6911H837.855V11.4098H865.851V114.53H837.855V74.2486H800.796V114.53H772.801Z" fill="white"/>
<path d="M979.041 62.9698C979.041 74.45 976.809 84.1343 972.344 92.0227C967.88 99.8775 961.854 105.836 954.268 109.897C946.682 113.926 938.223 115.94 928.891 115.94C919.492 115.94 910.999 113.909 903.413 109.847C895.86 105.752 889.852 99.7768 885.387 91.922C880.956 84.0336 878.741 74.3829 878.741 62.9698C878.741 51.4897 880.956 41.8222 885.387 33.9673C889.852 26.0789 895.86 20.1207 903.413 16.0925C910.999 12.0308 919.492 10 928.891 10C938.223 10 946.682 12.0308 954.268 16.0925C961.854 20.1207 967.88 26.0789 972.344 33.9673C976.809 41.8222 979.041 51.4897 979.041 62.9698ZM950.24 62.9698C950.24 56.7934 949.417 51.5904 947.773 47.3609C946.161 43.0978 943.761 39.8753 940.572 37.6934C937.417 35.4779 933.523 34.3702 928.891 34.3702C924.258 34.3702 920.348 35.4779 917.159 37.6934C914.004 39.8753 911.603 43.0978 909.959 47.3609C908.347 51.5904 907.542 56.7934 907.542 62.9698C907.542 69.1463 908.347 74.3661 909.959 78.6292C911.603 82.8587 914.004 86.0812 917.159 88.2967C920.348 90.4786 924.258 91.5695 928.891 91.5695C933.523 91.5695 937.417 90.4786 940.572 88.2967C943.761 86.0812 946.161 82.8587 947.773 78.6292C949.417 74.3661 950.24 69.1463 950.24 62.9698Z" fill="white"/>
<path d="M1031.67 114.53H991.994V11.4098H1031.27C1041.88 11.4098 1051.04 13.4743 1058.76 17.6031C1066.51 21.6983 1072.49 27.6063 1076.69 35.3268C1080.91 43.0138 1083.03 52.2282 1083.03 62.9698C1083.03 73.7115 1080.93 82.9426 1076.74 90.6632C1072.54 98.3502 1066.6 104.258 1058.91 108.387C1051.22 112.482 1042.14 114.53 1031.67 114.53ZM1019.99 90.7639H1030.66C1035.77 90.7639 1040.11 89.9415 1043.7 88.2967C1047.33 86.6519 1050.08 83.8154 1051.96 79.7873C1053.88 75.7591 1054.83 70.1533 1054.83 62.9698C1054.83 55.7864 1053.86 50.1805 1051.91 46.1524C1050 42.1243 1047.18 39.2878 1043.45 37.643C1039.76 35.9982 1035.23 35.1758 1029.86 35.1758H1019.99V90.7639Z" fill="white"/>
<path d="M1090 17.8527V11H1117.23V17.8527H1107.8V42.3265H1099.42V17.8527H1090Z" fill="white"/>
<path d="M1121.72 11H1132.31L1139.59 28.7436H1139.95L1147.23 11H1157.82V42.3265H1149.5V24.2159H1149.25L1142.28 42.0818H1137.26L1130.29 24.0935H1130.04V42.3265H1121.72V11Z" fill="white"/>
</svg>
