<svg xmlns="http://www.w3.org/2000/svg" width="1092" height="31" viewBox="0 0 1092 31" fill="none"><path d="M9.63458 12.8789C9.53782 12.5423 9.4019 12.2448 9.22681 11.9865C9.05171 11.7237 8.83746 11.5023 8.58404 11.3224C8.33523 11.138 8.04955 10.9973 7.72702 10.9005C7.40909 10.8036 7.0566 10.7552 6.66956 10.7552C5.94616 10.7552 5.31031 10.9351 4.762 11.2948C4.2183 11.6545 3.79439 12.1779 3.49029 12.8651C3.18619 13.5476 3.03413 14.3824 3.03413 15.3693C3.03413 16.3562 3.18388 17.1956 3.48338 17.8874C3.78288 18.5791 4.20678 19.1072 4.75509 19.4715C5.3034 19.8312 5.95077 20.0111 6.69721 20.0111C7.37453 20.0111 7.95279 19.8912 8.43199 19.6514C8.91579 19.4069 9.2844 19.0634 9.53782 18.6206C9.79585 18.1779 9.92486 17.6545 9.92486 17.0503L10.5331 17.1402H6.88382V14.8851H12.8069V16.6698C12.8069 17.915 12.5443 18.985 12.019 19.8797C11.4938 20.7697 10.7704 21.4569 9.84884 21.9411C8.92731 22.4208 7.87216 22.6606 6.68339 22.6606C5.35639 22.6606 4.19065 22.3677 3.18619 21.782C2.18172 21.1917 1.39842 20.3547 0.836287 19.2709C0.278762 18.1825 0 16.8912 0 15.397C0 14.2486 0.165875 13.2248 0.497625 12.3255C0.833983 11.4216 1.30396 10.656 1.90756 10.0288C2.51117 9.40163 3.21383 8.92431 4.01556 8.59687C4.81729 8.26943 5.68583 8.10571 6.62118 8.10571C7.42291 8.10571 8.16935 8.22331 8.8605 8.45852C9.55164 8.68911 10.1645 9.01654 10.6989 9.44083C11.238 9.86512 11.6781 10.3701 12.019 10.9558C12.36 11.5369 12.5789 12.1779 12.6756 12.8789H9.63458Z" fill="#05224D"></path><path d="M28.0623 15.3831C28.0623 16.9281 27.7697 18.2425 27.1845 19.3262C26.604 20.41 25.8114 21.2378 24.807 21.8097C23.8071 22.3769 22.6828 22.6606 21.4342 22.6606C20.1763 22.6606 19.0474 22.3746 18.0476 21.8028C17.0477 21.2309 16.2575 20.4031 15.6769 19.3193C15.0964 18.2355 14.8061 16.9235 14.8061 15.3831C14.8061 13.8382 15.0964 12.5238 15.6769 11.44C16.2575 10.3563 17.0477 9.53076 18.0476 8.96351C19.0474 8.39165 20.1763 8.10571 21.4342 8.10571C22.6828 8.10571 23.8071 8.39165 24.807 8.96351C25.8114 9.53076 26.604 10.3563 27.1845 11.44C27.7697 12.5238 28.0623 13.8382 28.0623 15.3831ZM25.0281 15.3831C25.0281 14.3824 24.8784 13.5384 24.5789 12.8513C24.284 12.1641 23.867 11.643 23.3279 11.2879C22.7888 10.9328 22.1576 10.7552 21.4342 10.7552C20.7108 10.7552 20.0795 10.9328 19.5404 11.2879C19.0013 11.643 18.582 12.1641 18.2826 12.8513C17.9877 13.5384 17.8402 14.3824 17.8402 15.3831C17.8402 16.3839 17.9877 17.2279 18.2826 17.915C18.582 18.6022 19.0013 19.1233 19.5404 19.4784C20.0795 19.8335 20.7108 20.0111 21.4342 20.0111C22.1576 20.0111 22.7888 19.8335 23.3279 19.4784C23.867 19.1233 24.284 18.6022 24.5789 17.915C24.8784 17.2279 25.0281 16.3839 25.0281 15.3831Z" fill="#05224D"></path><path d="M30.2791 22.4669V8.29941H33.2718V19.9973H39.3401V22.4669H30.2791Z" fill="#05224D"></path><path d="M46.3396 22.4669H41.3219V8.29941H46.3811C47.8049 8.29941 49.0305 8.58304 50.058 9.15029C51.0855 9.71293 51.8757 10.5223 52.4286 11.5784C52.9862 12.6345 53.2649 13.8981 53.2649 15.3693C53.2649 16.8451 52.9862 18.1133 52.4286 19.174C51.8757 20.2348 51.0809 21.0487 50.0442 21.616C49.0121 22.1833 47.7772 22.4669 46.3396 22.4669ZM44.3146 19.9004H46.2152C47.0999 19.9004 47.844 19.7436 48.4476 19.43C49.0558 19.1118 49.512 18.6206 49.8161 17.9565C50.1248 17.2878 50.2792 16.4254 50.2792 15.3693C50.2792 14.3224 50.1248 13.4669 49.8161 12.8028C49.512 12.1387 49.0582 11.6499 48.4545 11.3363C47.8509 11.0227 47.1068 10.8659 46.2221 10.8659H44.3146V19.9004Z" fill="#05224D"></path><path d="M55.4818 22.4669V8.29941H65.0196V10.769H58.4744V14.1449H64.5289V16.6145H58.4744V19.9973H65.0472V22.4669H55.4818Z" fill="#05224D"></path><path d="M79.2382 8.29941V22.4669H76.6533L70.4952 13.55H70.3915V22.4669H67.3989V8.29941H70.0252L76.135 17.2094H76.2594V8.29941H79.2382Z" fill="#05224D"></path><path d="M83.6047 22.4669V8.29941H88.3875C89.4979 8.29941 90.4056 8.50002 91.1106 8.90125C91.8202 9.29787 92.3454 9.83514 92.6864 10.5131C93.0274 11.191 93.1978 11.9473 93.1978 12.7821C93.1978 13.6168 93.0274 14.3755 92.6864 15.058C92.35 15.7406 91.8294 16.2848 91.1244 16.6906C90.4194 17.0918 89.5163 17.2924 88.4151 17.2924H84.987V15.7705H88.3598C89.1201 15.7705 89.7306 15.6391 90.1914 15.3762C90.6521 15.1134 90.9862 14.7582 91.1935 14.3109C91.4055 13.8589 91.5115 13.3493 91.5115 12.7821C91.5115 12.2148 91.4055 11.7075 91.1935 11.2602C90.9862 10.8128 90.6498 10.4623 90.1844 10.2087C89.7191 9.95044 89.1016 9.8213 88.3322 9.8213H85.3188V22.4669H83.6047Z" fill="#05224D"></path><path d="M95.959 22.4669V8.29941H104.502V9.8213H97.673V14.6084H104.059V16.1303H97.673V20.945H104.612V22.4669H95.959Z" fill="#05224D"></path><path d="M118.815 8.29941V22.4669H117.156L109.443 11.3432H109.305V22.4669H107.591V8.29941H109.25L116.991 19.4508H117.129V8.29941H118.815Z" fill="#05224D"></path><path d="M202.719 27.2207C202.113 27.2207 201.505 27.225 200.899 27.2196C200.298 27.2132 199.982 26.9481 199.866 26.3632C199.844 26.2559 199.833 26.1454 199.832 26.0359C199.829 25.2364 199.832 24.4369 199.829 23.6375C199.828 23.455 199.861 23.279 199.918 23.1105C200.033 22.7704 200.27 22.5568 200.63 22.4967C200.751 22.4763 200.877 22.4699 201 22.4699C202.158 22.4677 203.316 22.4677 204.474 22.4699C204.583 22.4699 204.695 22.4731 204.803 22.4881C205.229 22.545 205.511 22.7918 205.605 23.2082C205.647 23.3949 205.667 23.5902 205.669 23.7813C205.677 24.4981 205.673 25.215 205.671 25.9308C205.671 26.0402 205.662 26.1508 205.646 26.2602C205.548 26.9417 205.232 27.2175 204.538 27.2207C203.933 27.2239 203.325 27.2207 202.719 27.2207ZM204.288 24.8458C204.288 24.4745 204.288 24.1032 204.288 23.7319C204.288 23.7179 204.288 23.704 204.288 23.6911C204.276 23.2136 204.172 23.0944 203.711 23.088C203.064 23.0794 202.418 23.0783 201.77 23.0891C201.337 23.0955 201.224 23.205 201.22 23.6267C201.21 24.438 201.211 25.2504 201.219 26.0617C201.223 26.4791 201.312 26.5832 201.728 26.595C202.401 26.6144 203.075 26.6133 203.749 26.5972C204.186 26.5864 204.277 26.477 204.286 26.0434C204.294 25.6442 204.288 25.245 204.288 24.8458Z" fill="#05224D"></path><path d="M178.679 27.2207C178.086 27.2207 177.493 27.2239 176.9 27.2196C176.194 27.2143 175.825 26.8666 175.812 26.1561C175.796 25.2751 175.795 24.3919 175.813 23.5108C175.828 22.8272 176.195 22.4763 176.884 22.471C178.097 22.4613 179.311 22.4624 180.523 22.471C181.23 22.4763 181.597 22.824 181.614 23.5355C181.634 24.4026 181.634 25.2719 181.616 26.139C181.6 26.8708 181.226 27.2153 180.497 27.2185C179.892 27.2228 179.286 27.2207 178.679 27.2207ZM180.247 24.8587H180.246C180.246 24.4455 180.257 24.0324 180.243 23.6203C180.229 23.2082 180.125 23.0977 179.726 23.0902C179.052 23.0784 178.377 23.0784 177.703 23.0902C177.306 23.0966 177.18 23.2114 177.172 23.6139C177.156 24.4391 177.156 25.2654 177.173 26.0896C177.181 26.4791 177.286 26.5822 177.675 26.5918C178.363 26.6101 179.051 26.6101 179.739 26.5918C180.147 26.5811 180.23 26.4791 180.244 26.0542C180.257 25.6571 180.247 25.2579 180.247 24.8587Z" fill="#05224D"></path><path d="M182.382 15.5652C182.408 15.488 182.408 15.4729 182.416 15.4644C183.613 14.2635 184.775 13.0272 186.048 11.9037C187.029 11.0376 188.189 10.5826 189.481 10.4109C190.537 10.2703 191.596 10.251 192.657 10.2328C196.077 10.1738 199.496 10.2178 202.916 10.2135C203.263 10.2135 203.527 10.133 203.747 9.86362C203.901 9.6769 204.087 9.517 204.333 9.27017C204.114 9.27017 203.996 9.27017 203.879 9.27017C200.018 9.27232 196.156 9.26588 192.294 9.28413C191.193 9.28949 190.092 9.32383 188.998 9.49554C187.679 9.70158 186.528 10.2414 185.522 11.1053C184.485 11.9949 183.526 12.9661 182.543 13.9126C180.915 15.4815 179.288 17.0515 177.668 18.628C177.486 18.8051 177.306 18.8866 177.05 18.8855C174.403 18.878 171.755 18.8812 169.107 18.8791C169.017 18.8791 168.917 18.9134 168.83 18.8287C168.847 18.7106 168.95 18.6537 169.024 18.5808C172.568 15.0662 176.108 11.5463 179.661 8.0425C180.703 7.0155 181.813 6.0647 183.071 5.30062C184.436 4.47001 185.929 4.02358 187.5 3.80251C189.074 3.58144 190.657 3.53315 192.243 3.53208C201.11 3.53101 209.979 3.53101 218.846 3.53101C218.969 3.53101 219.091 3.53101 219.208 3.53101C219.255 3.6791 219.143 3.7231 219.083 3.7832C215.233 7.63578 211.38 11.4851 207.533 15.3409C207.347 15.5277 207.15 15.576 206.905 15.5749C205.472 15.5663 204.037 15.5642 202.603 15.5642C196.025 15.5631 189.446 15.5642 182.868 15.5642C182.716 15.5652 182.566 15.5652 182.382 15.5652Z" fill="#05224D"></path><path d="M205.694 18.8823C205.771 18.6784 205.889 18.6012 205.984 18.5057C210.867 13.6218 215.753 8.74007 220.633 3.8519C220.852 3.63298 221.069 3.52352 221.389 3.52567C224.187 3.53747 226.986 3.53211 229.786 3.53211C229.895 3.53211 230.005 3.53211 230.142 3.53211C230.089 3.73278 229.942 3.82078 229.832 3.93024C225.016 8.74543 220.192 13.5531 215.39 18.3812C215.012 18.7611 214.644 18.8963 214.128 18.892C211.48 18.8705 208.833 18.8823 206.185 18.8823C206.036 18.8823 205.887 18.8823 205.694 18.8823Z" fill="#05224D"></path><path d="M168.839 26.5027C170.153 26.6057 171.448 26.5424 172.741 26.5499C173.04 26.5521 173.112 26.4845 173.13 26.1883C173.154 25.8041 173.156 25.4167 173.142 25.0325C173.128 24.6548 173.046 24.5797 172.66 24.5764C171.834 24.5689 171.007 24.5732 170.18 24.5732C170.043 24.5732 169.904 24.5775 169.767 24.5721C169.232 24.5485 168.938 24.3103 168.892 23.7726C168.832 23.059 168.83 22.3389 168.892 21.6264C168.943 21.0522 169.307 20.741 169.894 20.7357C171.313 20.7239 172.732 20.7346 174.152 20.7271C174.34 20.726 174.432 20.7754 174.441 20.9728C174.447 21.1209 174.524 21.2647 174.48 21.4429C173.374 21.3699 172.263 21.4128 171.153 21.4021C171.015 21.401 170.877 21.3989 170.739 21.4074C170.42 21.4289 170.365 21.4804 170.355 21.8131C170.347 22.1157 170.348 22.4194 170.354 22.722C170.362 23.0891 170.424 23.1567 170.792 23.1599C171.688 23.1674 172.583 23.162 173.479 23.1652C173.616 23.1652 173.757 23.1642 173.89 23.1899C174.303 23.2704 174.511 23.4893 174.58 23.9057C174.603 24.0409 174.609 24.1804 174.61 24.3167C174.613 24.8812 174.613 25.4468 174.61 26.0112C174.609 26.1486 174.603 26.2881 174.577 26.4222C174.484 26.9073 174.156 27.1971 173.659 27.2142C173.232 27.2292 172.805 27.2185 172.378 27.2185C171.372 27.2185 170.366 27.2185 169.36 27.2185C168.835 27.2185 168.907 27.2453 168.854 26.8011C168.842 26.7109 168.783 26.6218 168.839 26.5027Z" fill="#05224D"></path><path d="M213.649 26.5337C214.803 26.6496 215.906 26.5927 217.007 26.6024C217.635 26.6078 217.662 26.5745 217.666 25.9596C217.666 25.9049 217.667 25.8491 217.666 25.7943C217.656 25.3779 217.603 25.3211 217.181 25.3189C216.436 25.3146 215.691 25.3179 214.946 25.3168C214.767 25.3168 214.59 25.3168 214.413 25.2674C214 25.1504 213.747 24.8972 213.692 24.4626C213.642 24.0773 213.646 23.692 213.713 23.3089C213.805 22.7874 214.109 22.5019 214.637 22.4762C215.063 22.4547 215.492 22.4687 215.92 22.4676C216.775 22.4665 217.629 22.4665 218.485 22.4676C218.838 22.4687 218.839 22.4697 218.905 22.8067C218.926 22.9119 218.961 23.017 218.913 23.1555C218.098 23.0406 217.274 23.0932 216.45 23.0836C216.119 23.0793 215.788 23.0761 215.457 23.0857C215.115 23.0964 215.06 23.1598 215.049 23.5085C215.028 24.1782 215.05 24.2029 215.729 24.2039C216.377 24.205 217.025 24.2029 217.673 24.205C217.825 24.2061 217.977 24.2082 218.127 24.2286C218.706 24.307 219.01 24.6428 219.026 25.2223C219.035 25.525 219.036 25.8287 219.025 26.1324C219.001 26.8643 218.64 27.2162 217.911 27.2173C216.643 27.2205 215.375 27.2195 214.105 27.2173C213.771 27.2173 213.771 27.2141 213.717 26.9007C213.695 26.7956 213.676 26.6872 213.649 26.5337Z" fill="#05224D"></path><path d="M212.669 27.2066C212.127 27.2066 211.635 27.2066 211.139 27.2066C211.22 26.0219 211.167 24.8457 211.176 23.6695C211.18 23.2231 211.062 23.1018 210.614 23.0922C210.008 23.0782 209.4 23.0782 208.794 23.0922C208.351 23.1029 208.244 23.222 208.24 23.6781C208.235 24.6568 208.238 25.6355 208.239 26.6142C208.239 26.8042 208.26 26.9941 208.334 27.1991C207.801 27.1991 207.296 27.1991 206.774 27.1991C206.921 26.4146 206.844 25.6334 206.846 24.8553C206.848 24.073 206.907 23.2896 206.791 22.4901C207.209 22.444 207.63 22.4193 208.025 22.4901C208.252 22.5309 208.441 22.532 208.651 22.4794C208.73 22.459 208.816 22.4676 208.898 22.4676C209.726 22.4665 210.554 22.4858 211.38 22.4622C212.297 22.4365 212.568 23.0095 212.565 23.6588C212.561 24.513 212.566 25.3683 212.563 26.2225C212.563 26.5413 212.563 26.8578 212.669 27.2066Z" fill="#05224D"></path><path d="M185.362 22.4892C185.882 22.4892 186.346 22.4892 186.803 22.4892C186.86 22.6448 186.836 22.7832 186.836 22.9195C186.839 23.939 186.834 24.9585 186.84 25.9769C186.842 26.463 186.935 26.5757 187.409 26.5896C188.029 26.6079 188.649 26.6068 189.268 26.5854C189.7 26.5703 189.802 26.4523 189.804 26.0273C189.809 25.0357 189.804 24.0442 189.807 23.0526C189.808 22.8734 189.75 22.7027 189.718 22.4967C190.175 22.4409 190.61 22.4774 191.042 22.4709C191.139 22.4698 191.192 22.5246 191.191 22.6255C191.191 22.722 191.192 22.8186 191.192 22.9152C191.192 24.0721 191.191 25.2289 191.193 26.3868C191.193 26.6487 191.187 26.9105 191.306 27.2239C190.778 27.1509 190.27 27.373 189.783 27.0994C189.758 27.0844 189.702 27.0994 189.672 27.1187C189.444 27.2614 189.192 27.2207 188.946 27.2217C188.161 27.2249 187.375 27.226 186.59 27.2217C185.883 27.2185 185.537 26.9191 185.485 26.2194C185.418 25.3126 185.469 24.4026 185.46 23.4936C185.456 23.1642 185.468 22.8358 185.362 22.4892Z" fill="#05224D"></path><path d="M196.52 26.535C196.52 26.6198 196.525 26.6617 196.519 26.7014C196.46 27.2218 196.459 27.2218 195.931 27.2218C195.242 27.2218 194.552 27.2004 193.864 27.2272C193.011 27.2615 192.695 26.7046 192.701 26.0575C192.709 25.2033 192.703 24.349 192.702 23.4948C192.702 23.0505 192.735 23.087 192.31 23.0859C192.269 23.0859 192.228 23.0859 192.186 23.0859C191.842 23.0827 191.711 22.8971 191.821 22.573C191.849 22.4925 191.907 22.4721 191.978 22.47C192.088 22.4667 192.198 22.4689 192.308 22.4678C192.7 22.4646 192.7 22.4646 192.702 22.0557C192.703 21.9312 192.708 21.8078 192.701 21.6833C192.694 21.5363 192.741 21.4505 192.902 21.4354C193.217 21.4065 193.533 21.3743 193.846 21.3292C194.041 21.3013 194.087 21.3861 194.077 21.5589C194.067 21.737 194.074 21.9173 194.075 22.0965C194.079 22.4624 194.079 22.4657 194.432 22.4678C194.956 22.471 195.479 22.4667 196.003 22.47C196.109 22.471 196.256 22.4206 196.312 22.5215C196.393 22.6663 196.364 22.8488 196.33 23.0065C196.306 23.1267 196.171 23.0827 196.083 23.0838C195.517 23.087 194.953 23.0838 194.387 23.087C194.081 23.0892 194.077 23.0935 194.076 23.4111C194.074 24.2514 194.075 25.0916 194.076 25.933C194.076 26.0017 194.079 26.0704 194.087 26.139C194.124 26.4867 194.192 26.564 194.551 26.5887C195.046 26.623 195.543 26.6144 196.038 26.5747C196.188 26.5629 196.338 26.55 196.52 26.535Z" fill="#05224D"></path><path d="M182.735 20.7324C183.2 20.7324 183.624 20.7324 184.048 20.7324C184.153 20.7324 184.194 20.7861 184.192 20.8859C184.19 20.9825 184.192 21.079 184.192 21.1756C184.192 22.663 184.19 24.1504 184.193 25.6378C184.194 26.1572 184.149 26.6787 184.275 27.2024C183.745 27.2024 183.241 27.2024 182.712 27.2024C182.82 26.8483 182.812 26.507 182.811 26.1657C182.81 24.8844 182.814 23.6042 182.809 22.3228C182.807 21.8034 182.852 21.2819 182.735 20.7324Z" fill="#05224D"></path><path d="M198.785 27.2034C198.234 27.2034 197.73 27.2034 197.252 27.2034C197.361 25.628 197.314 24.0687 197.28 22.4708C197.68 22.4708 198.089 22.474 198.499 22.4698C198.69 22.4676 198.679 22.5921 198.679 22.7187C198.678 23.4206 198.679 24.1224 198.679 24.8242C198.679 25.2921 198.682 25.76 198.678 26.2279C198.673 26.5445 198.673 26.86 198.785 27.2034Z" fill="#05224D"></path><path d="M280.142 30.5927V13.7697H290.451V17.0904H282.641L283.764 16.2342V21.0589L282.641 20.33H289.676V23.639H282.757L283.764 22.9217V28.1167L282.641 27.2489H290.659V30.5927H280.142Z" fill="#05224D"></path><path d="M295.965 30.7431C294.978 30.7431 294.129 30.477 293.42 29.9448C292.71 29.4048 292.166 28.645 291.788 27.6654C291.418 26.6858 291.233 25.5365 291.233 24.2176C291.233 22.8523 291.441 21.6876 291.858 20.7234C292.274 19.7515 292.856 19.011 293.605 18.5019C294.353 17.9851 295.217 17.7267 296.196 17.7267C296.829 17.7267 297.373 17.8347 297.828 18.0507C298.291 18.2667 298.665 18.5559 298.95 18.9184C299.235 19.281 299.424 19.6782 299.517 20.1102L299.933 21.2903L299.367 22.1118C299.289 21.8187 299.158 21.568 298.973 21.3597C298.796 21.1438 298.564 20.9779 298.279 20.8622C298.001 20.7465 297.67 20.6887 297.284 20.6887C296.505 20.6887 295.899 20.9856 295.467 21.5796C295.043 22.1658 294.831 23.0683 294.831 24.287C294.831 25.4517 295.035 26.3272 295.444 26.9134C295.861 27.4996 296.462 27.7927 297.249 27.7927C297.627 27.7927 297.967 27.7387 298.267 27.6307C298.576 27.515 298.827 27.3762 299.019 27.2142C299.212 27.0445 299.328 26.8787 299.367 26.7167L299.505 26.8671L299.367 27.6307C299.259 28.0935 299.112 28.5178 298.927 28.9034C298.742 29.2814 298.514 29.6092 298.244 29.8869C297.974 30.1569 297.65 30.369 297.272 30.5233C296.902 30.6698 296.466 30.7431 295.965 30.7431ZM299.378 30.5927L299.367 12.5896H302.953V30.5927H299.378Z" fill="#05224D"></path><path d="M310.308 30.7662C309.028 30.7662 307.937 30.5117 307.034 30.0026C306.132 29.4935 305.441 28.7569 304.963 27.7927C304.485 26.8208 304.246 25.6484 304.246 24.2754C304.246 22.8561 304.5 21.6606 305.009 20.6887C305.518 19.7091 306.236 18.9686 307.161 18.4672C308.087 17.9658 309.171 17.7152 310.413 17.7152C311.616 17.7152 312.626 17.9427 313.444 18.3978C314.269 18.8529 314.894 19.5239 315.318 20.411C315.743 21.298 315.955 22.3895 315.955 23.6853C315.955 23.8473 315.947 24.0363 315.931 24.2523C315.924 24.4605 315.912 24.6996 315.897 24.9696H307.775C307.859 26.0186 308.114 26.7861 308.538 27.2721C308.962 27.7503 309.556 27.9894 310.32 27.9894C310.952 27.9894 311.431 27.8506 311.755 27.5729C312.086 27.2952 312.283 26.9288 312.345 26.4737H315.793C315.723 27.3453 315.457 28.1051 314.994 28.753C314.539 29.3932 313.914 29.8908 313.12 30.2456C312.325 30.5927 311.388 30.7662 310.308 30.7662ZM309.244 22.9448H312.495C312.464 22.1349 312.268 21.5294 311.905 21.1283C311.55 20.7272 311.003 20.5267 310.262 20.5267C309.391 20.5267 308.754 20.8391 308.353 21.4639C307.952 22.0809 307.748 22.9603 307.74 24.1019C307.802 23.6622 307.952 23.3614 308.191 23.1994C308.43 23.0297 308.781 22.9448 309.244 22.9448Z" fill="#05224D"></path><path d="M317.226 30.5927V17.9581H320.443L320.744 22.725L320.605 21.7647C320.697 21.0705 320.879 20.4148 321.149 19.7978C321.418 19.173 321.82 18.6678 322.352 18.2821C322.892 17.8964 323.605 17.7036 324.492 17.7036C325.642 17.7036 326.563 18.0777 327.258 18.8259C327.959 19.5664 328.31 20.7002 328.31 22.2275V30.5927H324.712V23.5696C324.712 22.7674 324.643 22.1581 324.504 21.7415C324.365 21.3173 324.168 21.0281 323.914 20.8738C323.659 20.7195 323.358 20.6424 323.011 20.6424C322.518 20.6424 322.082 20.8005 321.704 21.1168C321.326 21.4253 321.037 21.7917 320.836 22.2159V30.5927H317.226Z" fill="#05224D"></path><path d="M303.365 0.0874923C301.171 2.65565 301.106 6.89011 303.223 9.55111C303.322 9.66927 303.483 9.68253 303.58 9.56316C305.774 6.995 305.838 2.76176 303.721 0.100755C303.623 -0.0306673 303.462 -0.031873 303.365 0.0874923ZM295.28 11.4863L291.089 10.2203C290.382 12.5955 291.723 15.0913 294.07 15.8148L298.261 17.0808C298.98 14.7055 297.639 12.1976 295.28 11.4863ZM311.301 11.3778L307.11 12.6438C304.751 13.3672 303.41 15.863 304.129 18.2382L308.32 16.9722C310.666 16.2488 312.008 13.753 311.301 11.3778ZM297.04 5.71092L292.849 4.44493C292.154 6.82017 293.484 9.31599 295.842 10.0394L300.033 11.3054C300.372 10.1638 300.247 8.93353 299.686 7.88462C299.125 6.83572 298.173 6.05394 297.04 5.71092ZM312.283 4.57755L308.092 5.84355C307.53 6.01201 307.007 6.29069 306.553 6.66354C306.099 7.03639 305.722 7.49604 305.445 8.01603C305.168 8.53603 304.996 9.10609 304.938 9.69338C304.881 10.2807 304.939 10.8736 305.11 11.438L309.301 10.172C311.648 9.44862 312.989 6.9528 312.283 4.57755Z" fill="#05224D"></path><path d="M388.552 26.7118C388.552 26.7118 396.609 18.655 379.947 7.20068C379.947 7.20068 373.839 15.6413 385.224 29.0124C385.224 29.0124 390.143 23.5855 382.744 12.9538C382.741 12.9538 390.03 18.6002 388.552 26.7118Z" fill="#0A2848"></path><path d="M384.167 8.46252C389.81 13.7249 391.182 14.8738 392.553 14.5448C393.924 14.2157 394.394 13.315 396.554 9.9405C398.569 6.79113 400.939 4.2422 400.939 4.2422C395.379 14.8796 398.035 13.6124 396.115 19.4781C394.198 25.3409 388.332 29.6161 388.332 29.6161C403.404 28.9031 402.691 16.4644 404.062 10.1599C405.433 3.85827 408.831 1.49985 408.831 1.49985C391.182 -1.78808 384.167 8.46252 384.167 8.46252ZM391.814 11.9698C390.497 11.9698 389.429 10.9018 389.429 9.58544C389.429 8.26912 390.497 7.20104 391.814 7.20104C393.13 7.20104 394.198 8.26912 394.198 9.58544C394.198 10.9018 393.13 11.9698 391.814 11.9698Z" fill="#05224D"></path><path d="M412.677 20.116C412.553 19.9918 412.489 19.8388 412.489 19.657V10.893C412.489 10.7112 412.55 10.5553 412.677 10.4283C412.801 10.2984 412.954 10.2349 413.136 10.2349H416.473C417.772 10.2349 418.745 10.5033 419.394 11.0374C420.044 11.5714 420.367 12.2729 420.367 13.1417C420.367 13.7133 420.208 14.2358 419.888 14.7092C419.567 15.1826 419.103 15.5233 418.491 15.734C419.178 15.9158 419.648 16.3431 419.902 17.0157C420.156 17.6883 420.28 18.3493 420.28 18.9988V19.657C420.28 19.8388 420.217 19.9918 420.093 20.116C419.969 20.2401 419.816 20.3007 419.634 20.3007C419.435 20.3007 419.273 20.2401 419.155 20.1217C419.036 20.0034 418.976 19.8475 418.976 19.657V19.2269C418.976 18.7506 418.932 18.3089 418.846 17.9019C418.759 17.4949 418.554 17.134 418.231 16.8136C417.908 16.4932 417.414 16.3344 416.756 16.3344H413.791V19.657C413.791 19.8388 413.728 19.9918 413.598 20.116C413.468 20.2401 413.315 20.3007 413.133 20.3007C412.954 20.3036 412.801 20.2401 412.677 20.116ZM416.383 15.1047C417.203 15.1047 417.856 14.943 418.338 14.6168C418.82 14.2935 419.059 13.8345 419.059 13.2428C419.059 12.6712 418.852 12.2324 418.436 11.9265C418.02 11.6205 417.313 11.4675 416.308 11.4675H413.788V15.1047H416.383Z" fill="#0A2848"></path><path d="M423.947 20.0438C423.823 19.9197 423.759 19.7667 423.759 19.5848V10.893C423.759 10.7112 423.82 10.5553 423.947 10.4283C424.071 10.2984 424.224 10.2349 424.406 10.2349H430.147C430.32 10.2349 430.465 10.2955 430.583 10.4138C430.701 10.5322 430.762 10.6794 430.762 10.8497C430.762 11.02 430.701 11.1644 430.583 11.2798C430.465 11.3953 430.318 11.453 430.147 11.453H425.064V14.6168H429.631C429.804 14.6168 429.948 14.6775 430.066 14.7958C430.185 14.9142 430.245 15.0614 430.245 15.2317C430.245 15.402 430.185 15.5464 430.066 15.6618C429.948 15.7773 429.801 15.835 429.631 15.835H425.064V19.0133H430.147C430.32 19.0133 430.465 19.0739 430.583 19.1922C430.701 19.3106 430.762 19.4578 430.762 19.6281C430.762 19.7984 430.701 19.9428 430.583 20.0582C430.465 20.1737 430.318 20.2314 430.147 20.2314H424.406C424.221 20.2314 424.071 20.1679 423.947 20.0438Z" fill="#0A2848"></path><path d="M435.71 19.7521C434.951 19.3364 434.353 18.7418 433.92 17.9624C433.484 17.183 433.268 16.2765 433.268 15.2344C433.268 14.1952 433.484 13.2859 433.92 12.5065C434.353 11.73 434.951 11.1325 435.71 10.7168C436.469 10.3011 437.326 10.0933 438.279 10.0933C438.928 10.0933 439.509 10.1712 440.02 10.3213C440.53 10.4743 441.039 10.6937 441.544 10.9795C441.754 11.0949 441.858 11.2768 441.858 11.5251C441.858 11.6694 441.806 11.7935 441.7 11.9032C441.596 12.0129 441.457 12.0677 441.284 12.0677C441.189 12.0677 441.102 12.0475 441.027 12.01C440.606 11.7906 440.196 11.6232 439.794 11.5077C439.393 11.3923 438.931 11.3345 438.406 11.3345C437.586 11.3345 436.885 11.5048 436.307 11.8426C435.73 12.1803 435.294 12.6451 435.005 13.2311C434.714 13.8171 434.569 14.4839 434.569 15.2287C434.569 15.9734 434.714 16.6403 435.005 17.2263C435.297 17.8123 435.73 18.277 436.307 18.6147C436.885 18.9525 437.583 19.1228 438.406 19.1228C438.931 19.1228 439.393 19.0651 439.794 18.9496C440.196 18.8341 440.606 18.6696 441.027 18.4473C441.102 18.4098 441.189 18.3896 441.284 18.3896C441.457 18.3896 441.593 18.4415 441.7 18.5484C441.803 18.6523 441.858 18.7822 441.858 18.9352C441.858 19.1834 441.754 19.3653 441.544 19.4808C441.039 19.7665 440.53 19.9859 440.02 20.1389C439.509 20.2919 438.928 20.367 438.279 20.367C437.323 20.3727 436.469 20.1649 435.71 19.7521Z" fill="#0A2848"></path><path d="M446.399 19.7148C445.646 19.276 445.062 18.6698 444.653 17.8962C444.243 17.1225 444.026 16.2363 444.009 15.2318C444.029 14.2301 444.243 13.341 444.653 12.5673C445.062 11.7937 445.646 11.1875 446.399 10.7487C447.152 10.31 448.03 10.0906 449.035 10.0906C450.039 10.0906 450.914 10.31 451.661 10.7487C452.412 11.1875 452.992 11.7966 453.408 12.5731C453.824 13.3525 454.04 14.2358 454.06 15.2289C454.04 16.2219 453.824 17.1081 453.408 17.8846C452.992 18.6611 452.409 19.2702 451.661 19.709C450.911 20.1478 450.036 20.3672 449.035 20.3672C448.033 20.3672 447.152 20.1535 446.399 19.7148ZM451.023 18.6409C451.586 18.2974 452.016 17.8298 452.311 17.238C452.605 16.6462 452.755 15.9765 452.755 15.2346C452.755 14.4928 452.608 13.823 452.311 13.2313C452.014 12.6395 451.586 12.1719 451.023 11.8284C450.461 11.4848 449.797 11.3116 449.035 11.3116C448.261 11.3116 447.594 11.4848 447.037 11.8284C446.48 12.1719 446.05 12.6395 445.755 13.2313C445.458 13.823 445.311 14.4928 445.311 15.2346C445.311 15.9765 445.458 16.6462 445.755 17.238C446.05 17.8298 446.477 18.2974 447.037 18.6409C447.597 18.9844 448.261 19.1576 449.035 19.1576C449.797 19.1576 450.461 18.9844 451.023 18.6409Z" fill="#0A2848"></path><path d="M459.643 19.6425L456.107 11.0662C456.078 10.9911 456.064 10.9074 456.064 10.8237C456.064 10.6245 456.121 10.4629 456.237 10.3445C456.352 10.2261 456.508 10.1655 456.71 10.1655C456.843 10.1655 456.964 10.2059 457.074 10.2868C457.184 10.3676 457.267 10.4744 457.325 10.6101L460.691 19.0017L464.057 10.6101C464.115 10.4773 464.198 10.3705 464.308 10.2868C464.418 10.2059 464.539 10.1655 464.672 10.1655C464.871 10.1655 465.03 10.2261 465.145 10.3445C465.261 10.4629 465.318 10.6245 465.318 10.8237C465.318 10.9103 465.304 10.9911 465.275 11.0662L461.739 19.6425C461.54 20.0813 461.242 20.3007 460.85 20.3007H460.535C460.14 20.3036 459.845 20.0842 459.643 19.6425Z" fill="#0A2848"></path><path d="M468.306 20.0438C468.182 19.9197 468.121 19.7667 468.121 19.5848V10.893C468.121 10.7112 468.182 10.5553 468.306 10.4283C468.43 10.3013 468.583 10.2349 468.765 10.2349H474.506C474.677 10.2349 474.824 10.2955 474.942 10.4138C475.061 10.5322 475.121 10.6794 475.121 10.8497C475.121 11.02 475.061 11.1644 474.942 11.2798C474.824 11.3953 474.677 11.453 474.506 11.453H469.423V14.6168H473.99C474.163 14.6168 474.307 14.6775 474.426 14.7958C474.544 14.9142 474.605 15.0614 474.605 15.2317C474.605 15.402 474.544 15.5464 474.426 15.6618C474.307 15.7773 474.16 15.835 473.99 15.835H469.423V19.0133H474.506C474.677 19.0133 474.824 19.0739 474.942 19.1922C475.061 19.3106 475.121 19.4578 475.121 19.6281C475.121 19.7984 475.061 19.9428 474.942 20.0582C474.824 20.1737 474.677 20.2314 474.506 20.2314H468.765C468.583 20.2314 468.43 20.1679 468.306 20.0438Z" fill="#0A2848"></path><path d="M478.516 20.116C478.392 19.9918 478.332 19.8388 478.332 19.657V10.893C478.332 10.7112 478.392 10.5553 478.516 10.4283C478.64 10.3013 478.793 10.2349 478.975 10.2349H482.312C483.611 10.2349 484.584 10.5033 485.234 11.0374C485.883 11.5714 486.206 12.2729 486.206 13.1417C486.206 13.7133 486.048 14.2358 485.727 14.7092C485.407 15.1826 484.942 15.5233 484.33 15.734C485.017 15.9158 485.488 16.3431 485.742 17.0157C485.996 17.6883 486.12 18.3493 486.12 18.9988V19.657C486.12 19.8388 486.056 19.9918 485.932 20.116C485.808 20.2401 485.655 20.3007 485.473 20.3007C485.274 20.3007 485.112 20.2401 484.994 20.1217C484.876 20.0034 484.815 19.8475 484.815 19.657V19.2269C484.815 18.7506 484.772 18.3089 484.685 17.9019C484.599 17.4949 484.394 17.134 484.07 16.8136C483.744 16.4932 483.253 16.3344 482.595 16.3344H479.633V19.657C479.633 19.8388 479.57 19.9918 479.44 20.116C479.31 20.2401 479.157 20.3007 478.975 20.3007C478.793 20.3036 478.64 20.2401 478.516 20.116ZM482.226 15.1047C483.045 15.1047 483.698 14.943 484.18 14.6168C484.662 14.2935 484.902 13.8345 484.902 13.2428C484.902 12.6712 484.694 12.2324 484.278 11.9265C483.862 11.6205 483.155 11.4675 482.151 11.4675H479.633V15.1047H482.226Z" fill="#0A2848"></path><path d="M492.326 20.1159C492.197 19.9917 492.133 19.8387 492.133 19.6569V16.0052L488.709 11.2076C488.632 11.0834 488.594 10.9535 488.594 10.8208C488.594 10.6389 488.655 10.483 488.773 10.356C488.891 10.2261 489.041 10.1626 489.223 10.1626C489.463 10.1626 489.653 10.2723 489.795 10.4917L492.788 14.8448L495.782 10.4917C495.926 10.2723 496.117 10.1626 496.353 10.1626C496.535 10.1626 496.688 10.2261 496.812 10.356C496.937 10.4859 496.994 10.6389 496.986 10.8208C496.986 10.9535 496.948 11.0834 496.87 11.2076L493.432 16.0052V19.6569C493.432 19.8387 493.371 19.9917 493.247 20.1159C493.123 20.24 492.97 20.3006 492.788 20.3006C492.612 20.3035 492.456 20.24 492.326 20.1159Z" fill="#0A2848"></path><path d="M415.02 28.5075C415.02 26.9025 412.621 27.6848 412.621 25.9211C412.621 24.8645 413.481 24.6047 414.154 24.6047C414.697 24.6047 415.369 24.7866 415.369 25.0464C415.369 25.1417 415.288 25.3149 415.159 25.3149C415.02 25.3149 414.783 25.0406 414.145 25.0406C413.611 25.0406 413.097 25.2369 413.097 25.8778C413.097 27.2229 415.496 26.4638 415.496 28.4642C415.496 29.489 414.861 29.9538 413.972 29.9538C413.045 29.9538 412.491 29.4341 412.491 29.1743C412.491 29.0589 412.601 28.9059 412.708 28.9059C412.895 28.9059 413.04 29.5063 413.943 29.5063C414.613 29.5063 415.02 29.1657 415.02 28.5075Z" fill="#05224D"></path><path d="M421.16 27.0468H422.294C422.41 27.0468 422.476 27.1479 422.476 27.2633C422.476 27.3586 422.424 27.4596 422.294 27.4596H421.16V29.463H423.472C423.588 29.463 423.654 29.5727 423.654 29.6882C423.654 29.7892 423.602 29.9047 423.472 29.9047H420.9C420.79 29.9047 420.684 29.8383 420.684 29.717V24.801C420.684 24.6769 420.793 24.6191 420.9 24.6191H423.472C423.602 24.6191 423.654 24.7288 423.654 24.8299C423.654 24.954 423.588 25.0608 423.472 25.0608H421.16V27.0468Z" fill="#05224D"></path><path d="M428.691 24.7923C428.691 24.6971 428.763 24.6249 428.873 24.6191H430.152C430.998 24.6191 431.713 24.9598 431.713 26.0423C431.713 26.9371 431.214 27.3297 430.585 27.4365L431.699 29.5756C431.722 29.6044 431.728 29.642 431.728 29.6708C431.728 29.795 431.589 29.9162 431.454 29.9162C431.338 29.9162 431.257 29.7776 431.2 29.6622L430.085 27.4943H429.167V29.7141C429.167 29.8383 429.043 29.9018 428.928 29.9018C428.804 29.9018 428.688 29.8354 428.688 29.7141V24.7923H428.691ZM429.167 25.0608V27.0844H430.152C430.796 27.0844 431.237 26.7957 431.237 26.0654C431.237 25.3437 430.796 25.0608 430.152 25.0608H429.167Z" fill="#05224D"></path><path d="M436.454 24.8732C436.448 24.8588 436.448 24.8357 436.448 24.8241C436.448 24.7 436.601 24.6221 436.722 24.6221C436.809 24.6221 436.889 24.6596 436.91 24.7462L438.246 29.183L439.577 24.7462C439.606 24.6596 439.678 24.6221 439.759 24.6221C439.889 24.6221 440.047 24.7173 440.047 24.8328C440.047 24.8472 440.039 24.8617 440.039 24.8761L438.535 29.7777C438.497 29.8931 438.376 29.9509 438.246 29.9509C438.122 29.9509 438.001 29.8989 437.963 29.7777L436.454 24.8732Z" fill="#05224D"></path><path d="M445.073 24.7923C445.073 24.6682 445.188 24.6191 445.313 24.6191C445.428 24.6191 445.552 24.6682 445.552 24.7923V29.7141C445.552 29.8383 445.428 29.9018 445.313 29.9018C445.188 29.9018 445.073 29.8354 445.073 29.7141V24.7923Z" fill="#05224D"></path><path d="M452.446 25.0608C451.773 25.0608 451.404 25.4072 451.404 26.1607V28.4007C451.404 29.1599 451.773 29.5063 452.475 29.5063C453.335 29.5063 453.413 28.9636 453.459 28.6172C453.473 28.5018 453.546 28.4296 453.699 28.4296C453.866 28.4296 453.938 28.4873 453.938 28.7269C453.938 29.3851 453.381 29.948 452.428 29.948C451.611 29.948 450.933 29.5294 450.933 28.4007V26.1607C450.933 25.0406 451.626 24.6221 452.451 24.6221C453.398 24.6221 453.941 25.1792 453.941 25.8287C453.941 26.0683 453.869 26.1174 453.701 26.1174C453.534 26.1174 453.47 26.0365 453.462 25.9355C453.442 25.6237 453.306 25.0608 452.446 25.0608Z" fill="#05224D"></path><path d="M459.579 27.0471H460.714C460.829 27.0471 460.895 27.1481 460.895 27.2636C460.895 27.3588 460.843 27.4599 460.714 27.4599H459.579V29.4632H461.891C462.007 29.4632 462.073 29.5729 462.073 29.6884C462.073 29.7894 462.021 29.9049 461.891 29.9049H459.319C459.21 29.9049 459.103 29.8385 459.103 29.7173V24.8012C459.103 24.6771 459.212 24.6194 459.319 24.6194H461.891C462.021 24.6194 462.073 24.7291 462.073 24.8301C462.073 24.9542 462.007 25.061 461.891 25.061H459.579V27.0471Z" fill="#05224D"></path><path d="M469.347 28.5075C469.347 26.9025 466.948 27.6848 466.948 25.9211C466.948 24.8645 467.809 24.6047 468.481 24.6047C469.024 24.6047 469.696 24.7866 469.696 25.0464C469.696 25.1417 469.616 25.3149 469.486 25.3149C469.347 25.3149 469.11 25.0406 468.475 25.0406C467.941 25.0406 467.427 25.2369 467.427 25.8778C467.427 27.2229 469.826 26.4638 469.826 28.4642C469.826 29.489 469.191 29.9538 468.302 29.9538C467.376 29.9538 466.821 29.4341 466.821 29.1743C466.821 29.0589 466.931 28.9059 467.038 28.9059C467.225 28.9059 467.37 29.5063 468.273 29.5063C468.943 29.5063 469.347 29.1657 469.347 28.5075Z" fill="#05224D"></path><path d="M412.489 5.64494C412.489 5.6305 412.489 5.61318 412.495 5.59875L413.869 1.13594C413.9 1.03202 414.013 0.98584 414.126 0.98584C414.244 0.98584 414.356 1.0378 414.388 1.13594L415.756 5.59875C415.756 5.61318 415.762 5.62473 415.762 5.63917C415.762 5.74309 415.618 5.82969 415.5 5.82969C415.427 5.82969 415.361 5.79793 415.335 5.7171L415.032 4.70389H413.21L412.907 5.7171C412.887 5.79505 412.815 5.82969 412.737 5.82969C412.627 5.82969 412.489 5.75752 412.489 5.64494ZM414.922 4.3315L414.128 1.68441L413.326 4.3315H414.922Z" fill="#05224D"></path><path d="M417.711 1.19067C417.711 1.07809 417.809 1.02612 417.907 1.02612H418.984C419.72 1.02612 420.323 1.21665 420.323 2.14328C420.323 2.69463 420.101 3.08433 419.766 3.22866C420.167 3.3932 420.442 3.68765 420.442 4.36024V4.4786C420.442 5.47739 419.87 5.83245 419.14 5.83245H417.904C417.78 5.83245 417.708 5.75451 417.708 5.66791V1.19067H417.711ZM418.138 3.03814H418.998C419.602 3.03814 419.893 2.81586 419.893 2.18945C419.893 1.58614 419.512 1.42738 418.972 1.42738H418.138V3.03814ZM419.094 5.42831C419.665 5.42831 420.014 5.13387 420.014 4.4555V4.34292C420.014 3.65878 419.665 3.41052 419.094 3.41052H418.141V5.42831H419.094Z" fill="#05224D"></path><path d="M423.527 3.87839C423.527 4.38356 423.244 4.40377 422.956 4.40377H421.469V4.64625C421.469 5.17162 421.89 5.5007 422.468 5.5007C422.987 5.5007 423.111 5.23801 423.256 5.23801C423.36 5.23801 423.441 5.36215 423.441 5.44298C423.441 5.60174 423.065 5.87598 422.453 5.87598C421.625 5.87598 421.042 5.37658 421.042 4.62604V3.88994C421.042 3.23178 421.608 2.68042 422.297 2.68042C422.95 2.68331 423.527 3.1827 423.527 3.87839ZM422.785 4.08912C423.048 4.08912 423.114 4.0487 423.114 3.86684C423.114 3.44539 422.78 3.03837 422.292 3.03837C421.838 3.03837 421.469 3.3992 421.469 3.84086V4.08912H422.785Z" fill="#05224D"></path><path d="M424.584 4.86249C424.584 5.28971 424.742 5.43982 425.196 5.43982H425.38C425.499 5.43982 425.577 5.5322 425.577 5.63034C425.577 5.73426 425.499 5.82664 425.38 5.82664H425.196C424.52 5.82664 424.156 5.53797 424.156 4.8596V1.39558C424.156 1.30321 424.269 1.23682 424.367 1.23682C424.471 1.23682 424.584 1.30321 424.584 1.39558V2.71768H425.432C425.519 2.71768 425.583 2.80428 425.583 2.89377C425.583 2.98326 425.516 3.06986 425.432 3.06986H424.584V4.86249Z" fill="#05224D"></path><path d="M426.535 4.86273C426.535 5.28996 426.694 5.44007 427.147 5.44007H427.332C427.45 5.44007 427.528 5.53244 427.528 5.63059C427.528 5.73451 427.45 5.82688 427.332 5.82688H427.147C426.472 5.82688 426.108 5.53821 426.108 4.85984V1.39582C426.108 1.30345 426.22 1.23706 426.319 1.23706C426.423 1.23706 426.535 1.30345 426.535 1.39582V2.71793H427.384C427.47 2.71793 427.534 2.80453 427.534 2.89401C427.534 2.9835 427.468 3.0701 427.384 3.0701H426.535V4.86273Z" fill="#05224D"></path><path d="M430.38 3.87839C430.38 4.38356 430.097 4.40377 429.809 4.40377H428.322V4.64625C428.322 5.17162 428.743 5.5007 429.321 5.5007C429.84 5.5007 429.965 5.23801 430.109 5.23801C430.213 5.23801 430.294 5.36215 430.294 5.44298C430.294 5.60174 429.918 5.87598 429.306 5.87598C428.478 5.87598 427.895 5.37658 427.895 4.62604V3.88994C427.895 3.23178 428.461 2.68042 429.15 2.68042C429.8 2.68331 430.38 3.1827 430.38 3.87839ZM429.635 4.08912C429.898 4.08912 429.965 4.0487 429.965 3.86684C429.965 3.44539 429.63 3.03837 429.142 3.03837C428.689 3.03837 428.319 3.3992 428.319 3.84086V4.08912H429.635Z" fill="#05224D"></path><path d="M432.317 3.07589C431.884 3.07589 431.451 3.43673 431.451 4.03427V5.65659C431.451 5.74319 431.359 5.8269 431.235 5.8269C431.116 5.8269 431.024 5.7403 431.024 5.65659V2.87671C431.024 2.78434 431.116 2.71795 431.235 2.71795C431.347 2.71795 431.44 2.78434 431.44 2.87671V3.20002C431.584 2.93733 431.893 2.68042 432.32 2.68042H432.551C432.643 2.68042 432.721 2.77279 432.721 2.87671C432.721 2.98063 432.643 3.073 432.551 3.073H432.317V3.07589Z" fill="#05224D"></path><path d="M436.993 1.02632C437.106 1.02632 437.158 1.12447 437.158 1.22262C437.158 1.32654 437.106 1.43334 436.993 1.43334H435.897V5.65944C435.897 5.77203 435.784 5.82976 435.68 5.82976C435.567 5.82976 435.464 5.76914 435.464 5.65944V1.43334H434.358C434.254 1.43334 434.193 1.3352 434.193 1.22839C434.193 1.13024 434.245 1.02344 434.358 1.02344H436.993V1.02632Z" fill="#05224D"></path><path d="M439.459 3.91015V4.62604C439.459 5.27554 438.873 5.87598 438.203 5.87598C437.539 5.87598 436.962 5.2842 436.962 4.62604V3.91015C436.962 3.25199 437.519 2.68042 438.203 2.68042C438.873 2.68331 439.459 3.23467 439.459 3.91015ZM439.031 3.91015C439.031 3.48869 438.665 3.07589 438.203 3.07589C437.741 3.07589 437.389 3.48869 437.389 3.91015V4.62604C437.389 5.0677 437.75 5.4805 438.203 5.4805C438.662 5.4805 439.031 5.0677 439.031 4.62604V3.91015Z" fill="#05224D"></path><path d="M442.513 0.974398V5.65948C442.513 5.74608 442.427 5.8298 442.308 5.8298C442.196 5.8298 442.103 5.7432 442.103 5.65948V5.37081C441.959 5.63928 441.61 5.87598 441.203 5.87598C440.579 5.87598 440.039 5.27844 440.039 4.62605V3.91016C440.039 3.23179 440.57 2.68043 441.217 2.68043C441.65 2.68043 441.947 2.92291 442.083 3.17983V0.971508C442.083 0.879134 442.181 0.812744 442.305 0.812744C442.429 0.815631 442.513 0.882024 442.513 0.974398ZM440.469 4.62894C440.469 5.06194 440.845 5.48339 441.283 5.48339C441.742 5.48339 442.086 5.03018 442.086 4.83389V3.91304C442.086 3.38766 441.685 3.07879 441.292 3.07879C440.839 3.07879 440.469 3.49158 440.469 3.91304V4.62894Z" fill="#05224D"></path><path d="M445.417 3.95056V5.65948C445.417 5.75762 445.33 5.82979 445.206 5.82979C445.093 5.82979 445.01 5.75762 445.01 5.65948V5.37081C444.779 5.6335 444.458 5.87598 444.017 5.87598C443.517 5.87598 443.122 5.59886 443.122 5.00997C443.122 4.29408 443.74 4.10933 444.652 4.10933H444.987V3.95056C444.987 3.5291 444.776 3.05568 444.21 3.05568C443.768 3.05568 443.613 3.24621 443.506 3.24621C443.393 3.24621 443.335 3.11342 443.335 3.01528C443.335 2.84496 443.803 2.68042 444.222 2.68042C445.108 2.68331 445.417 3.29239 445.417 3.95056ZM444.99 4.40377H444.712C444.109 4.40377 443.549 4.46439 443.549 4.96956C443.549 5.3506 443.8 5.51514 444.121 5.51514C444.542 5.51514 444.987 5.11966 444.987 4.82522V4.40377H444.99Z" fill="#05224D"></path><path d="M445.862 2.946C445.85 2.92579 445.841 2.90558 445.841 2.88537C445.841 2.77279 445.991 2.68042 446.104 2.68042C446.17 2.68042 446.237 2.7064 446.254 2.7728L447.155 5.19184L448.003 2.7728C448.029 2.7064 448.09 2.68042 448.148 2.68042C448.252 2.68042 448.41 2.76702 448.41 2.89115C448.41 2.90558 448.41 2.93156 448.396 2.94311L447.377 5.70277C447.114 6.4129 446.785 7.35107 446.043 7.35107C445.931 7.35107 445.847 7.30488 445.847 7.16054C445.847 7.0624 445.879 6.96425 445.98 6.96425C446.393 6.96425 446.768 6.37826 446.932 5.697L445.862 2.946Z" fill="#05224D"></path><path d="M546.986 8.39785C546.986 6.19432 547.577 4.49601 548.759 3.3029C549.786 2.26393 551.094 1.74445 552.681 1.74445C554.804 1.74445 556.357 2.4409 557.339 3.8338C557.881 4.61589 558.172 5.40082 558.212 6.18861H555.575C555.404 5.5835 555.184 5.12681 554.916 4.81854C554.436 4.27051 553.725 3.9965 552.783 3.9965C551.824 3.9965 551.068 4.38469 550.514 5.16106C549.961 5.93173 549.684 7.02493 549.684 8.44067C549.684 9.85641 549.975 10.9182 550.557 11.6261C551.145 12.3282 551.89 12.6793 552.792 12.6793C553.717 12.6793 554.422 12.3768 554.907 11.7717C555.175 11.4463 555.398 10.9582 555.575 10.3074H558.187C557.958 11.6832 557.373 12.8021 556.431 13.6641C555.495 14.5261 554.293 14.9571 552.826 14.9571C551.011 14.9571 549.584 14.3748 548.545 13.2102C547.506 12.04 546.986 10.4358 546.986 8.39785Z" fill="#05224D"></path><path d="M565.089 12.7221C566.134 12.7221 566.962 12.3368 567.572 11.5661C568.189 10.7955 568.497 9.69942 568.497 8.27797C568.497 6.86223 568.189 5.76903 567.572 4.99836C566.962 4.22199 566.134 3.8338 565.089 3.8338C564.044 3.8338 563.211 4.21914 562.589 4.9898C561.966 5.76047 561.655 6.85652 561.655 8.27797C561.655 9.69942 561.966 10.7955 562.589 11.5661C563.211 12.3368 564.044 12.7221 565.089 12.7221ZM571.135 8.27797C571.135 10.5443 570.498 12.2797 569.225 13.4842C568.272 14.4661 566.893 14.9571 565.089 14.9571C563.285 14.9571 561.907 14.4661 560.953 13.4842C559.674 12.2797 559.035 10.5443 559.035 8.27797C559.035 5.96598 559.674 4.23055 560.953 3.0717C561.907 2.08982 563.285 1.59888 565.089 1.59888C566.893 1.59888 568.272 2.08982 569.225 3.0717C570.498 4.23055 571.135 5.96598 571.135 8.27797Z" fill="#05224D"></path><path d="M575.091 4.17632V7.56725H578.08C578.673 7.56725 579.119 7.49874 579.416 7.36174C579.941 7.12197 580.203 6.64816 580.203 5.94029C580.203 5.17533 579.949 4.66156 579.441 4.39896C579.156 4.25053 578.728 4.17632 578.157 4.17632H575.091ZM578.705 1.98421C579.59 2.00134 580.269 2.1098 580.743 2.3096C581.222 2.5094 581.628 2.8034 581.959 3.19158C582.233 3.51127 582.45 3.8652 582.61 4.25339C582.769 4.64158 582.849 5.08399 582.849 5.58064C582.849 6.18005 582.698 6.77089 582.395 7.35317C582.093 7.92974 581.593 8.33791 580.897 8.57767C581.479 8.81173 581.89 9.14568 582.13 9.57954C582.375 10.0077 582.498 10.6642 582.498 11.549V12.3967C582.498 12.9733 582.521 13.3644 582.567 13.5699C582.635 13.8953 582.795 14.135 583.046 14.2892V14.606H580.143C580.063 14.3263 580.006 14.1008 579.972 13.9295C579.904 13.5756 579.867 13.2131 579.861 12.842L579.844 11.6689C579.832 10.864 579.684 10.3274 579.398 10.0591C579.119 9.79076 578.591 9.6566 577.814 9.6566H575.091V14.606H572.514V1.98421H578.705Z" fill="#05224D"></path><path d="M584.383 1.98421H587.149L592.175 10.7955V1.98421H594.633V14.606H591.995L586.84 5.64058V14.606H584.383V1.98421Z" fill="#05224D"></path><path d="M605.731 4.21914H599.052V6.89934H605.183V9.09145H599.052V12.3368H606.039V14.606H596.474V1.98421H605.731V4.21914Z" fill="#05224D"></path><path d="M610.03 4.17632V7.56725H613.019C613.612 7.56725 614.058 7.49874 614.354 7.36174C614.88 7.12197 615.142 6.64816 615.142 5.94029C615.142 5.17533 614.888 4.66156 614.38 4.39896C614.095 4.25053 613.667 4.17632 613.096 4.17632H610.03ZM613.644 1.98421C614.529 2.00134 615.208 2.1098 615.682 2.3096C616.161 2.5094 616.566 2.8034 616.898 3.19158C617.172 3.51127 617.389 3.8652 617.548 4.25339C617.708 4.64158 617.788 5.08399 617.788 5.58064C617.788 6.18005 617.637 6.77089 617.334 7.35317C617.032 7.92974 616.532 8.33791 615.836 8.57767C616.418 8.81173 616.829 9.14568 617.069 9.57954C617.314 10.0077 617.437 10.6642 617.437 11.549V12.3967C617.437 12.9733 617.46 13.3644 617.506 13.5699C617.574 13.8953 617.734 14.135 617.985 14.2892V14.606H615.082C615.002 14.3263 614.945 14.1008 614.911 13.9295C614.842 13.5756 614.805 13.2131 614.8 12.842L614.783 11.6689C614.771 10.864 614.623 10.3274 614.337 10.0591C614.058 9.79076 613.53 9.6566 612.753 9.6566H610.03V14.606H607.453V1.98421H613.644Z" fill="#05224D"></path><path d="M621.274 10.7098C621.354 11.2864 621.511 11.7174 621.745 12.0028C622.173 12.5223 622.907 12.7821 623.946 12.7821C624.568 12.7821 625.073 12.7136 625.461 12.5766C626.198 12.314 626.566 11.8259 626.566 11.1123C626.566 10.6956 626.383 10.373 626.018 10.1447C625.652 9.92206 625.079 9.72511 624.297 9.55385L622.961 9.25415C621.648 8.9573 620.74 8.63476 620.238 8.28653C619.387 7.70425 618.962 6.79373 618.962 5.55496C618.962 4.42465 619.373 3.48558 620.195 2.73775C621.017 1.98992 622.224 1.616 623.817 1.616C625.147 1.616 626.28 1.96994 627.217 2.67781C628.159 3.37997 628.652 4.40181 628.698 5.74334H626.163C626.118 4.98409 625.787 4.44463 625.17 4.12494C624.759 3.91373 624.248 3.80812 623.637 3.80812C622.958 3.80812 622.416 3.94512 622.01 4.21914C621.605 4.49315 621.402 4.87563 621.402 5.36657C621.402 5.81755 621.602 6.15436 622.002 6.377C622.259 6.52542 622.807 6.69954 623.646 6.89934L625.821 7.42168C626.774 7.65002 627.493 7.95543 627.979 8.33791C628.732 8.93161 629.109 9.79076 629.109 10.9154C629.109 12.0685 628.667 13.0275 627.782 13.7925C626.903 14.5518 625.658 14.9314 624.048 14.9314C622.404 14.9314 621.111 14.5575 620.169 13.8096C619.227 13.0561 618.756 12.0228 618.756 10.7098H621.274Z" fill="#05224D"></path><path d="M639.531 1.98421V4.21914H635.755V14.606H633.1V4.21914H629.307V1.98421H639.531Z" fill="#05224D"></path><path d="M645.654 12.7221C646.699 12.7221 647.526 12.3368 648.137 11.5661C648.754 10.7955 649.062 9.69942 649.062 8.27797C649.062 6.86223 648.754 5.76903 648.137 4.99836C647.526 4.22199 646.699 3.8338 645.654 3.8338C644.609 3.8338 643.776 4.21914 643.154 4.9898C642.531 5.76047 642.22 6.85652 642.22 8.27797C642.22 9.69942 642.531 10.7955 643.154 11.5661C643.776 12.3368 644.609 12.7221 645.654 12.7221ZM651.699 8.27797C651.699 10.5443 651.063 12.2797 649.79 13.4842C648.837 14.4661 647.458 14.9571 645.654 14.9571C643.85 14.9571 642.471 14.4661 641.518 13.4842C640.239 12.2797 639.6 10.5443 639.6 8.27797C639.6 5.96598 640.239 4.23055 641.518 3.0717C642.471 2.08982 643.85 1.59888 645.654 1.59888C647.458 1.59888 648.837 2.08982 649.79 3.0717C651.063 4.23055 651.699 5.96598 651.699 8.27797Z" fill="#05224D"></path><path d="M652.976 1.98421H655.742L660.768 10.7955V1.98421H663.226V14.606H660.588L655.434 5.64058V14.606H652.976V1.98421Z" fill="#05224D"></path><path d="M674.324 4.21914H667.645V6.89934H673.776V9.09145H667.645V12.3368H674.632V14.606H665.068V1.98421H674.324V4.21914Z" fill="#05224D"></path><path d="M547.562 17.7868H549.079V22.3678H554.845V17.7868H556.362V28.8733H554.845V23.6885H549.079V28.8733H547.562V17.7868Z" fill="#05224D" fill-opacity="0.6"></path><path d="M558.219 17.7868H566.302V19.1452H559.683V22.5112H565.804V23.7942H559.683V27.5526H566.415V28.8733H558.219V17.7868Z" fill="#05224D" fill-opacity="0.6"></path><path d="M573.457 24.33L571.774 19.432L569.986 24.33H573.457ZM570.989 17.7868H572.687L576.71 28.8733H575.065L573.94 25.5526H569.555L568.355 28.8733H566.816L570.989 17.7868Z" fill="#05224D" fill-opacity="0.6"></path><path d="M577.458 17.7868H578.96V27.5526H584.575V28.8733H577.458V17.7868Z" fill="#05224D" fill-opacity="0.6"></path><path d="M585.783 17.7868H587.3V28.8733H585.783V17.7868Z" fill="#05224D" fill-opacity="0.6"></path><path d="M589.127 17.7868H590.9L596.5 26.7677V17.7868H597.926V28.8733H596.243L590.56 19.8999V28.8733H589.127V17.7868Z" fill="#05224D" fill-opacity="0.6"></path><path d="M604.47 17.5C605.512 17.5 606.412 17.7012 607.172 18.1037C608.274 18.6823 608.948 19.6961 609.195 21.1452H607.708C607.527 20.3351 607.152 19.7465 606.583 19.3792C606.015 19.0069 605.298 18.8207 604.432 18.8207C603.406 18.8207 602.541 19.2056 601.836 19.9754C601.137 20.7452 600.787 21.8923 600.787 23.4168C600.787 24.735 601.077 25.8092 601.655 26.6394C602.234 27.4645 603.177 27.8771 604.485 27.8771C605.487 27.8771 606.314 27.5878 606.968 27.0092C607.627 26.4256 607.964 25.4847 607.98 24.1866H604.508V22.9414H609.376V28.8733H608.41L608.047 27.4469C607.539 28.0054 607.089 28.3928 606.697 28.6091C606.037 28.9815 605.2 29.1676 604.183 29.1676C602.87 29.1676 601.741 28.7425 600.795 27.8922C599.763 26.8255 599.248 25.3614 599.248 23.4998C599.248 21.6433 599.751 20.1666 600.757 19.0697C601.713 18.0232 602.951 17.5 604.47 17.5Z" fill="#05224D" fill-opacity="0.6"></path><path d="M619.445 17.4849C620.848 17.4849 621.938 17.8547 622.713 18.5943C623.487 19.3339 623.918 20.1741 624.003 21.115H622.539C622.373 20.4005 622.041 19.8345 621.543 19.4169C621.05 18.9993 620.355 18.7905 619.46 18.7905C618.368 18.7905 617.485 19.1754 616.811 19.9452C616.142 20.71 615.807 21.8848 615.807 23.4696C615.807 24.7677 616.109 25.8218 616.713 26.6318C617.321 27.4368 618.227 27.8394 619.43 27.8394C620.536 27.8394 621.379 27.4142 621.958 26.5639C622.265 26.1161 622.494 25.5275 622.645 24.7979H624.109C623.978 25.9652 623.545 26.9438 622.811 27.7337C621.93 28.6846 620.743 29.1601 619.248 29.1601C617.96 29.1601 616.879 28.7702 616.003 27.9903C614.851 26.9589 614.275 25.3665 614.275 23.213C614.275 21.5779 614.708 20.237 615.573 19.1905C616.509 18.0534 617.799 17.4849 619.445 17.4849Z" fill="#05224D" fill-opacity="0.6"></path><path d="M625.468 17.7868H633.551V19.1452H626.932V22.5112H633.053V23.7942H626.932V27.5526H633.664V28.8733H625.468V17.7868Z" fill="#05224D" fill-opacity="0.6"></path><path d="M635.015 17.7868H636.789L642.389 26.7677V17.7868H643.815V28.8733H642.132L636.449 19.8999V28.8733H635.015V17.7868Z" fill="#05224D" fill-opacity="0.6"></path><path d="M653.634 17.7868V19.1075H649.899V28.8733H648.374V19.1075H644.638V17.7868H653.634Z" fill="#05224D" fill-opacity="0.6"></path><path d="M654.541 17.7868H662.623V19.1452H656.005V22.5112H662.125V23.7942H656.005V27.5526H662.737V28.8733H654.541V17.7868Z" fill="#05224D" fill-opacity="0.6"></path><path d="M669.243 22.8659C669.947 22.8659 670.503 22.725 670.911 22.4433C671.323 22.1615 671.53 21.6533 671.53 20.9188C671.53 20.1288 671.243 19.5905 670.669 19.3037C670.362 19.1528 669.952 19.0773 669.439 19.0773H665.771V22.8659H669.243ZM664.269 17.7868H669.401C670.247 17.7868 670.943 17.91 671.492 18.1566C672.533 18.6295 673.054 19.5024 673.054 20.7754C673.054 21.4395 672.916 21.9829 672.639 22.4055C672.367 22.8281 671.985 23.1678 671.492 23.4244C671.924 23.6005 672.249 23.8319 672.465 24.1187C672.687 24.4055 672.81 24.8709 672.835 25.5149L672.888 27.0016C672.903 27.4243 672.938 27.7387 672.994 27.945C673.084 28.2972 673.245 28.5236 673.477 28.6242V28.8733H671.635C671.585 28.7777 671.545 28.6544 671.514 28.5035C671.484 28.3526 671.459 28.0607 671.439 27.628L671.348 25.779C671.313 25.0545 671.044 24.569 670.541 24.3225C670.254 24.1866 669.804 24.1187 669.19 24.1187H665.771V28.8733H664.269V17.7868Z" fill="#05224D" fill-opacity="0.6"></path><path d="M744.373 22.1358C744.73 22.1358 745.012 22.2678 745.218 22.5319C745.425 22.7959 745.528 23.1496 745.528 23.5928C745.528 23.7625 745.505 23.9747 745.458 24.2293C745.307 25.0026 745.021 25.6722 744.599 26.238C744.186 26.8038 743.721 27.2329 743.205 27.5252C742.689 27.8175 742.205 27.9637 741.755 27.9637C741.351 27.9637 741.022 27.8741 740.769 27.6949C740.525 27.5063 740.403 27.2564 740.403 26.9452C740.403 26.9075 740.412 26.8321 740.431 26.7189L741.909 18.9107C741.928 18.7975 741.938 18.7173 741.938 18.6702C741.938 18.425 741.83 18.3024 741.614 18.3024C741.435 18.3024 741.196 18.3779 740.896 18.5287H740.867C740.83 18.5287 740.806 18.5052 740.797 18.458C740.788 18.4109 740.802 18.3826 740.839 18.3731L742.557 17.5244H742.585C742.623 17.5244 742.656 17.5386 742.684 17.5668C742.712 17.5951 742.721 17.6187 742.712 17.6376L741.403 24.8234C741.722 24.0407 742.153 23.3995 742.698 22.8997C743.242 22.3904 743.801 22.1358 744.373 22.1358ZM744.669 24.6678C744.725 24.3849 744.754 24.1256 744.754 23.8898C744.754 23.5221 744.679 23.2344 744.528 23.027C744.388 22.8101 744.162 22.7016 743.852 22.7016C743.449 22.7016 743.064 22.8572 742.698 23.1684C742.332 23.4796 742.008 23.9181 741.726 24.4839C741.454 25.0403 741.248 25.6863 741.107 26.4219C741.097 26.469 741.093 26.5303 741.093 26.6058C741.093 26.9075 741.205 27.1527 741.431 27.3413C741.665 27.5205 741.97 27.6101 742.346 27.6101C742.665 27.6101 742.98 27.4922 743.289 27.2564C743.608 27.0207 743.89 26.6812 744.134 26.238C744.378 25.7948 744.556 25.2714 744.669 24.6678Z" fill="#05224D"></path><path d="M750.156 22.1924C750.344 22.1924 750.517 22.2678 750.677 22.4187C750.837 22.5696 750.898 22.7393 750.86 22.928C750.804 23.1543 750.668 23.2674 750.452 23.2674C750.348 23.2674 750.269 23.2439 750.212 23.1967C750.156 23.1496 750.1 23.0788 750.043 22.9845C750.015 22.9374 749.978 22.8949 749.931 22.8572C749.893 22.8101 749.846 22.7865 749.79 22.7865C749.574 22.7865 749.316 23.0647 749.016 23.6211C748.725 24.1775 748.443 24.847 748.171 25.6297C747.908 26.4124 747.715 27.1008 747.593 27.6949C747.584 27.7515 747.546 27.7987 747.481 27.8364C747.424 27.8741 747.345 27.893 747.241 27.893C747.119 27.893 747.04 27.8836 747.002 27.8647C746.974 27.8553 746.96 27.8364 746.96 27.8081L747.03 27.4828L747.171 26.7331L747.607 24.2576C747.673 23.9276 747.706 23.6447 747.706 23.4089C747.706 22.9468 747.584 22.7158 747.34 22.7158C747.124 22.7158 746.838 22.8855 746.481 23.225L746.453 23.2392C746.434 23.2392 746.411 23.225 746.383 23.1967C746.364 23.159 746.359 23.1307 746.368 23.1118C746.903 22.4989 747.392 22.1924 747.833 22.1924C748.002 22.1924 748.128 22.2537 748.213 22.3763C748.307 22.4989 748.354 22.7111 748.354 23.0128C748.354 23.3335 748.307 23.7484 748.213 24.2576L747.917 25.8702C748.246 24.8612 748.612 23.9983 749.016 23.2816C749.419 22.5555 749.799 22.1924 750.156 22.1924Z" fill="#05224D"></path><path d="M753.619 20.4667C753.441 20.4667 753.3 20.4195 753.196 20.3252C753.103 20.2309 753.056 20.0942 753.056 19.915C753.056 19.7547 753.103 19.6274 753.196 19.5331C753.3 19.4388 753.441 19.3916 753.619 19.3916C753.797 19.3916 753.933 19.4388 754.027 19.5331C754.121 19.6274 754.168 19.7547 754.168 19.915C754.168 20.0942 754.121 20.2309 754.027 20.3252C753.933 20.4195 753.797 20.4667 753.619 20.4667ZM752.746 27.9071C752.586 27.9071 752.469 27.8647 752.394 27.7798C752.319 27.6855 752.281 27.5252 752.281 27.2989C752.281 27.082 752.314 26.8226 752.38 26.5209L752.957 23.5786C752.985 23.4183 752.999 23.2863 752.999 23.1826C752.999 23.0317 752.971 22.9185 752.915 22.8431C752.868 22.7582 752.802 22.7158 752.718 22.7158C752.605 22.7158 752.455 22.7724 752.267 22.8855C752.089 22.9987 751.901 23.1637 751.704 23.3806C751.695 23.39 751.68 23.3948 751.662 23.3948C751.634 23.3948 751.605 23.3806 751.577 23.3523C751.558 23.3146 751.563 23.2863 751.591 23.2674C751.91 22.8997 752.201 22.6309 752.464 22.4612C752.727 22.282 752.971 22.1924 753.196 22.1924C753.356 22.1924 753.469 22.2395 753.534 22.3338C753.609 22.4187 753.647 22.5649 753.647 22.7724C753.647 22.9892 753.614 23.258 753.548 23.5786L752.985 26.5209C752.957 26.6718 752.943 26.8085 752.943 26.9311C752.943 27.2329 753.037 27.3837 753.225 27.3837C753.337 27.3837 753.483 27.3272 753.661 27.214C753.839 27.0914 754.027 26.9264 754.224 26.7189C754.234 26.7095 754.248 26.7048 754.267 26.7048C754.304 26.7048 754.332 26.7236 754.351 26.7614C754.37 26.7896 754.365 26.8132 754.337 26.8321C753.717 27.5488 753.187 27.9071 752.746 27.9071Z" fill="#05224D"></path><path d="M759.702 26.5209C759.674 26.6718 759.66 26.8038 759.66 26.917C759.66 27.2282 759.759 27.3837 759.956 27.3837C760.144 27.3837 760.468 27.1527 760.927 26.6906C760.946 26.6718 760.96 26.6623 760.97 26.6623C760.998 26.6623 761.021 26.6812 761.04 26.7189C761.068 26.7472 761.068 26.7755 761.04 26.8038C760.702 27.181 760.411 27.4592 760.167 27.6384C759.923 27.8175 759.688 27.9071 759.463 27.9071C759.304 27.9071 759.186 27.8647 759.111 27.7798C759.045 27.6855 759.013 27.5346 759.013 27.3272C759.013 27.1103 759.045 26.8415 759.111 26.5209L759.393 25.0356C758.961 25.9504 758.501 26.6671 758.013 27.1857C757.525 27.7044 757.018 27.9637 756.492 27.9637C756.164 27.9637 755.891 27.8553 755.676 27.6384C755.469 27.412 755.366 27.0631 755.366 26.5916C755.366 26.3841 755.385 26.1861 755.422 25.9975C755.544 25.3091 755.798 24.6726 756.182 24.0879C756.567 23.4938 757.027 23.0223 757.562 22.6733C758.097 22.315 758.637 22.1358 759.182 22.1358C759.454 22.1358 759.693 22.2113 759.9 22.3621L760.547 18.9107C760.566 18.7975 760.575 18.7173 760.575 18.6702C760.575 18.425 760.468 18.3024 760.252 18.3024C760.073 18.3024 759.834 18.3779 759.534 18.5287H759.505C759.477 18.5287 759.454 18.5052 759.435 18.458C759.426 18.4109 759.44 18.3826 759.477 18.3731L761.209 17.5244H761.237C761.265 17.5244 761.294 17.5386 761.322 17.5668C761.35 17.5951 761.359 17.6187 761.35 17.6376L759.702 26.5209ZM756.886 27.3555C757.318 27.3555 757.745 27.115 758.168 26.634C758.6 26.1437 758.952 25.5826 759.224 24.9507C759.505 24.3095 759.646 23.8097 759.646 23.4513C759.646 23.1779 759.571 22.9657 759.421 22.8148C759.271 22.6639 759.059 22.5885 758.787 22.5885C758.13 22.5885 757.553 22.8431 757.055 23.3523C756.567 23.8521 756.243 24.5594 756.084 25.4741C756.046 25.691 756.028 25.9079 756.028 26.1248C756.028 26.5303 756.103 26.8368 756.253 27.0443C756.403 27.2517 756.614 27.3555 756.886 27.3555Z" fill="#05224D"></path><path d="M767.367 26.6906C767.377 26.6812 767.391 26.6765 767.409 26.6765C767.438 26.6765 767.461 26.6953 767.48 26.7331C767.499 26.7614 767.499 26.7849 767.48 26.8038C767.151 27.181 766.86 27.4592 766.607 27.6384C766.363 27.8175 766.128 27.9071 765.903 27.9071C765.753 27.9071 765.645 27.8647 765.579 27.7798C765.513 27.6855 765.48 27.5346 765.48 27.3272C765.48 27.1291 765.509 26.8604 765.565 26.5209L765.832 24.9507C765.391 25.856 764.889 26.5869 764.326 27.1433C763.772 27.6902 763.246 27.9637 762.749 27.9637C762.186 27.9637 761.904 27.6148 761.904 26.917C761.904 26.8415 761.913 26.7001 761.932 26.4926C762.026 25.823 762.27 25.1488 762.664 24.4698C763.068 23.7908 763.537 23.2344 764.072 22.8006C764.607 22.3574 765.114 22.1358 765.593 22.1358C765.771 22.1358 765.94 22.1688 766.1 22.2348C766.26 22.3008 766.391 22.3999 766.494 22.5319C766.673 22.3716 766.776 22.2018 766.804 22.0226C766.813 21.9944 766.846 21.9849 766.903 21.9944C766.959 22.0038 766.982 22.0179 766.973 22.0368L766.156 26.5209C766.128 26.6718 766.114 26.8038 766.114 26.917C766.114 27.2282 766.203 27.3837 766.382 27.3837C766.597 27.3837 766.926 27.1527 767.367 26.6906ZM763.157 27.3555C763.505 27.3555 763.88 27.1763 764.284 26.8179C764.687 26.4596 765.049 26.0022 765.368 25.4458C765.696 24.88 765.917 24.3236 766.03 23.7767C766.048 23.7012 766.058 23.5975 766.058 23.4655C766.058 23.2014 765.983 22.9892 765.832 22.8289C765.682 22.6686 765.466 22.5885 765.185 22.5885C764.837 22.5885 764.481 22.7393 764.115 23.0411C763.749 23.3429 763.425 23.7531 763.143 24.2718C762.871 24.7904 762.688 25.361 762.594 25.9834C762.566 26.1814 762.552 26.3606 762.552 26.5209C762.552 27.0773 762.754 27.3555 763.157 27.3555Z" fill="#05224D"></path><path d="M769.319 27.9071C769.16 27.9071 769.042 27.86 768.967 27.7657C768.892 27.6714 768.855 27.5158 768.855 27.2989C768.855 27.1574 768.887 26.8981 768.953 26.5209L770.375 18.9107C770.394 18.7786 770.403 18.6938 770.403 18.656C770.403 18.4203 770.305 18.3024 770.108 18.3024C769.939 18.3024 769.704 18.3779 769.404 18.5287H769.376C769.338 18.5287 769.31 18.5052 769.291 18.458C769.282 18.4109 769.296 18.3826 769.333 18.3731L771.065 17.5244H771.093C771.131 17.5244 771.164 17.5386 771.192 17.5668C771.22 17.5951 771.229 17.6187 771.22 17.6376L769.573 26.5209C769.535 26.7283 769.516 26.8651 769.516 26.9311C769.516 27.0726 769.545 27.1857 769.601 27.2706C769.657 27.346 769.728 27.3837 769.812 27.3837C770.019 27.3837 770.342 27.1527 770.784 26.6906C770.802 26.6718 770.821 26.6623 770.84 26.6623C770.868 26.6623 770.892 26.6812 770.91 26.7189C770.929 26.7472 770.924 26.7755 770.896 26.8038C770.568 27.181 770.277 27.4592 770.023 27.6384C769.779 27.8175 769.545 27.9071 769.319 27.9071Z" fill="#05224D"></path><path d="M730.447 2.83501C731.162 2.83501 731.746 2.8888 732.201 2.99638C732.656 3.09321 733.138 3.27072 733.647 3.52892C733.711 3.57195 733.749 3.6096 733.76 3.64188C733.782 3.6634 733.798 3.74408 733.809 3.88394L734.004 5.72361C734.004 5.75588 733.971 5.7774 733.906 5.78816C733.852 5.78816 733.82 5.77202 733.809 5.73974C733.571 4.84681 733.176 4.17979 732.623 3.7387C732.071 3.28686 731.346 3.06093 730.447 3.06093C729.494 3.06093 728.655 3.25996 727.93 3.65802C727.215 4.05607 726.657 4.62626 726.257 5.36858C725.867 6.10015 725.672 6.95543 725.672 7.93443C725.672 8.84889 725.889 9.70417 726.322 10.5003C726.766 11.2856 727.356 11.915 728.092 12.3884C728.839 12.851 729.635 13.0823 730.479 13.0823C732.277 13.0823 733.425 12.2055 733.923 10.4519C733.923 10.4304 733.95 10.4196 734.004 10.4196C734.08 10.4196 734.118 10.4357 734.118 10.468L733.988 12.1786C733.977 12.3077 733.961 12.3884 733.939 12.4206C733.917 12.4529 733.874 12.4906 733.809 12.5336C733.246 12.8241 732.715 13.0231 732.217 13.1307C731.73 13.249 731.145 13.3082 730.463 13.3082C729.337 13.3082 728.33 13.0876 727.442 12.6466C726.565 12.1947 725.878 11.5654 725.38 10.7585C724.882 9.94085 724.633 9.00488 724.633 7.95057C724.633 6.93929 724.882 6.04636 725.38 5.27176C725.878 4.49716 726.565 3.90008 727.442 3.48051C728.33 3.05017 729.332 2.83501 730.447 2.83501Z" fill="#05224D"></path><path d="M747.915 12.9048C747.947 12.9048 747.964 12.937 747.964 13.0016C747.964 13.0661 747.947 13.0984 747.915 13.0984H746.031C745.76 13.0984 745.235 12.6519 744.455 11.759C743.687 10.8553 742.766 9.6181 741.694 8.0474C741.315 8.1227 740.974 8.16036 740.671 8.16036C740.628 8.16036 740.395 8.14422 739.973 8.11195V11.7913C739.973 12.1248 740.005 12.3668 740.07 12.5175C740.146 12.6681 740.281 12.7703 740.476 12.8241C740.671 12.8779 740.985 12.9048 741.418 12.9048C741.451 12.9048 741.467 12.937 741.467 13.0016C741.467 13.0661 741.451 13.0984 741.418 13.0984C741.094 13.0984 740.834 13.093 740.639 13.0823L739.534 13.0661L738.462 13.0823C738.268 13.093 737.997 13.0984 737.65 13.0984C737.629 13.0984 737.618 13.0661 737.618 13.0016C737.618 12.937 737.629 12.9048 737.65 12.9048C738.083 12.9048 738.397 12.8779 738.592 12.8241C738.798 12.7703 738.939 12.6681 739.015 12.5175C739.09 12.3561 739.128 12.114 739.128 11.7913V4.31965C739.128 3.9969 739.09 3.76022 739.015 3.60961C738.95 3.45899 738.814 3.35678 738.609 3.30299C738.414 3.23844 738.105 3.20617 737.683 3.20617C737.65 3.20617 737.634 3.17389 737.634 3.10935C737.634 3.0448 737.65 3.01252 737.683 3.01252L738.462 3.02866C738.896 3.05017 739.253 3.06093 739.534 3.06093C739.773 3.06093 739.995 3.05555 740.2 3.0448C740.417 3.03404 740.601 3.02328 740.752 3.01252C741.142 2.98025 741.489 2.96411 741.792 2.96411C742.604 2.96411 743.232 3.16314 743.676 3.56119C744.131 3.94849 744.358 4.46489 744.358 5.11038C744.358 5.68057 744.185 6.20235 743.838 6.67571C743.492 7.13832 743.032 7.5041 742.458 7.77306C743.389 9.08557 744.169 10.1076 744.797 10.8392C745.425 11.5707 745.982 12.0979 746.469 12.4206C746.957 12.7434 747.438 12.9048 747.915 12.9048ZM739.973 7.74078C740.276 7.77306 740.601 7.7892 740.947 7.7892C741.846 7.7892 742.485 7.60631 742.864 7.24052C743.254 6.86398 743.449 6.29917 743.449 5.5461C743.449 4.71771 743.243 4.11524 742.831 3.7387C742.431 3.36216 741.846 3.1739 741.077 3.1739C740.666 3.1739 740.379 3.2492 740.217 3.39982C740.054 3.55043 739.973 3.8678 739.973 4.35193V7.74078Z" fill="#05224D"></path><path d="M757.351 10.7423C757.351 10.7101 757.383 10.6993 757.448 10.7101C757.513 10.7101 757.546 10.7262 757.546 10.7585C757.448 11.4363 757.4 12.1355 757.4 12.8563C757.4 12.9424 757.378 13.007 757.335 13.05C757.302 13.0823 757.237 13.0984 757.14 13.0984H750.432C750.411 13.0984 750.4 13.0661 750.4 13.0016C750.4 12.937 750.411 12.9048 750.432 12.9048C750.854 12.9048 751.163 12.8779 751.358 12.8241C751.564 12.7703 751.699 12.6681 751.764 12.5175C751.84 12.3561 751.878 12.114 751.878 11.7913V4.31965C751.878 3.9969 751.84 3.76022 751.764 3.60961C751.699 3.45899 751.564 3.35678 751.358 3.30299C751.163 3.23844 750.854 3.20617 750.432 3.20617C750.411 3.20617 750.4 3.17389 750.4 3.10935C750.4 3.0448 750.411 3.01252 750.432 3.01252H756.864C756.961 3.01252 757.01 3.06093 757.01 3.15776L757.042 5.11038C757.042 5.14266 757.01 5.1588 756.945 5.1588C756.891 5.1588 756.864 5.14266 756.864 5.11038C756.864 4.56171 756.718 4.126 756.425 3.80325C756.133 3.48051 755.748 3.31913 755.272 3.31913H754.151C753.74 3.31913 753.437 3.34603 753.242 3.39982C753.047 3.45361 752.912 3.55581 752.836 3.70643C752.771 3.85705 752.738 4.09373 752.738 4.41648V7.69237H754.882C755.38 7.69237 755.727 7.61168 755.922 7.45031C756.117 7.27818 756.214 6.9877 756.214 6.57889C756.214 6.55737 756.247 6.54662 756.312 6.54662C756.376 6.54662 756.409 6.55737 756.409 6.57889L756.393 7.85375C756.393 8.16574 756.398 8.39704 756.409 8.54766L756.425 9.30611C756.425 9.32763 756.393 9.33839 756.328 9.33839C756.263 9.33839 756.23 9.32763 756.23 9.30611C756.23 8.82199 756.127 8.48311 755.922 8.28946C755.716 8.09581 755.353 7.99898 754.834 7.99898H752.738V11.7267C752.738 12.0387 752.771 12.27 752.836 12.4206C752.912 12.5605 753.042 12.6573 753.226 12.7111C753.421 12.7649 753.729 12.7918 754.151 12.7918H755.646C756.079 12.7918 756.447 12.6035 756.75 12.227C757.064 11.8504 757.264 11.3556 757.351 10.7423Z" fill="#05224D"></path><path d="M771.598 12.9048C771.641 12.9048 771.663 12.937 771.663 13.0016C771.663 13.0661 771.641 13.0984 771.598 13.0984C771.403 13.0984 771.089 13.0876 770.656 13.0661C770.244 13.0446 769.941 13.0339 769.746 13.0339C769.519 13.0339 769.221 13.0446 768.853 13.0661C768.507 13.0876 768.247 13.0984 768.074 13.0984C768.03 13.0984 768.009 13.0661 768.009 13.0016C768.009 12.937 768.03 12.9048 768.074 12.9048C768.517 12.9048 768.837 12.8671 769.032 12.7918C769.227 12.7057 769.324 12.5659 769.324 12.3722C769.324 12.2216 769.265 12.0118 769.145 11.7429L767.619 8.46697H763.753L762.649 11.1135C762.497 11.4793 762.422 11.7805 762.422 12.0172C762.422 12.3292 762.551 12.5551 762.811 12.695C763.071 12.8348 763.477 12.9048 764.029 12.9048C764.084 12.9048 764.111 12.937 764.111 13.0016C764.111 13.0661 764.084 13.0984 764.029 13.0984C763.835 13.0984 763.553 13.0876 763.185 13.0661C762.773 13.0446 762.416 13.0339 762.113 13.0339C761.842 13.0339 761.523 13.0446 761.155 13.0661C760.83 13.0876 760.565 13.0984 760.359 13.0984C760.305 13.0984 760.278 13.0661 760.278 13.0016C760.278 12.937 760.305 12.9048 760.359 12.9048C760.662 12.9048 760.917 12.851 761.122 12.7434C761.339 12.6358 761.539 12.4422 761.723 12.1624C761.918 11.8827 762.124 11.4847 762.34 10.9683L765.735 2.85115C765.756 2.81887 765.789 2.80273 765.832 2.80273C765.886 2.80273 765.919 2.81887 765.93 2.85115L769.698 10.8876C769.947 11.4363 770.169 11.8558 770.364 12.1463C770.558 12.426 770.748 12.625 770.932 12.7434C771.127 12.851 771.349 12.9048 771.598 12.9048ZM763.883 8.17649H767.473L765.572 4.126L763.883 8.17649Z" fill="#05224D"></path><path d="M786.723 12.9048C786.755 12.9048 786.771 12.937 786.771 13.0016C786.771 13.0661 786.755 13.0984 786.723 13.0984C786.387 13.0984 786.122 13.093 785.927 13.0823L784.839 13.0661L783.832 13.0823C783.669 13.093 783.442 13.0984 783.149 13.0984C783.128 13.0984 783.117 13.0661 783.117 13.0016C783.117 12.937 783.128 12.9048 783.149 12.9048C783.528 12.9048 783.804 12.8779 783.978 12.8241C784.162 12.7595 784.281 12.6519 784.335 12.5013C784.4 12.3507 784.422 12.114 784.4 11.7913L784.124 4.28738L780.323 12.9854C780.302 13.0285 780.258 13.05 780.194 13.05C780.139 13.05 780.091 13.0285 780.047 12.9854L776.084 4.35193L776.068 4.31965L775.938 11.4201C775.927 11.9795 776.019 12.3668 776.214 12.582C776.409 12.7972 776.772 12.9048 777.303 12.9048C777.324 12.9048 777.335 12.937 777.335 13.0016C777.335 13.0661 777.324 13.0984 777.303 13.0984C776.999 13.0984 776.767 13.093 776.604 13.0823L775.727 13.0661L774.931 13.0823C774.791 13.093 774.579 13.0984 774.298 13.0984C774.276 13.0984 774.265 13.0661 774.265 13.0016C774.265 12.937 774.276 12.9048 774.298 12.9048C774.753 12.9048 775.072 12.7972 775.256 12.582C775.451 12.3561 775.554 11.9688 775.565 11.4201L775.727 3.77098C775.391 3.39444 774.953 3.20617 774.412 3.20617C774.39 3.20617 774.379 3.17389 774.379 3.10935C774.379 3.0448 774.39 3.01252 774.412 3.01252L774.964 3.02866C775.072 3.03942 775.213 3.0448 775.386 3.0448C775.559 3.0448 775.705 3.03942 775.825 3.02866C775.944 3.0179 776.036 3.01252 776.101 3.01252C776.252 3.01252 776.371 3.06631 776.458 3.1739C776.545 3.27072 776.675 3.49664 776.848 3.85167L780.502 11.6945L784.14 3.41596C784.194 3.29762 784.265 3.20079 784.351 3.12548C784.449 3.05017 784.541 3.01252 784.627 3.01252C784.671 3.01252 784.741 3.0179 784.839 3.02866C784.936 3.03942 785.071 3.0448 785.245 3.0448L785.975 3.02866C786.084 3.0179 786.252 3.01252 786.479 3.01252C786.501 3.01252 786.511 3.0448 786.511 3.10935C786.511 3.17389 786.501 3.20617 786.479 3.20617C785.916 3.20617 785.515 3.28148 785.277 3.43209C785.05 3.57195 784.941 3.85705 784.952 4.28738L785.261 11.7913C785.272 12.1248 785.31 12.3668 785.374 12.5175C785.45 12.6681 785.586 12.7703 785.781 12.8241C785.986 12.8779 786.3 12.9048 786.723 12.9048Z" fill="#05224D"></path><path d="M864.006 24.518H867.507V13.1953L872.209 24.518H874.861L879.538 13.1953V24.518H883.039V7.10999H879.087L873.535 20.0538L867.983 7.10999H864.006V24.518ZM898.346 24.518H902.047L895.769 7.08505H891.693L885.415 24.518H889.092L890.242 21.201H897.195L898.346 24.518ZM896.245 18.4078H891.193L893.719 11.1253L896.245 18.4078ZM916.603 19.4802C916.603 13.345 907.65 15.2903 907.65 11.7987C907.65 10.3771 908.675 9.70374 910.051 9.75362C911.551 9.77856 912.477 10.6764 912.552 11.8236H916.403C916.178 8.68121 913.727 6.8606 910.151 6.8606C906.549 6.8606 903.998 8.75603 903.998 11.8985C903.973 18.2082 912.977 15.9387 912.977 19.7046C912.977 20.9516 912.001 21.8245 910.351 21.8245C908.725 21.8245 907.8 20.9018 907.699 19.5051H903.948C903.998 22.7972 906.799 24.6926 910.426 24.6926C914.402 24.6926 916.603 22.2236 916.603 19.4802ZM929.484 24.518H933.911L926.508 15.7392L933.711 7.10999H929.484L923.131 14.9162V7.10999H919.63V24.518H923.131V16.7617L929.484 24.518Z" fill="#05224D"></path><path d="M855.293 25.492C851.766 26.9079 846.346 18.695 841.485 20.4349C839.279 21.224 838.155 23.7191 837.557 25.6328C835.557 10.5852 837.781 5.65787 839.713 5.15256C843.072 4.2735 848.036 17.1185 853.203 16.0601C855.455 15.5925 857.037 14.1767 857.868 11.9543C859.025 23.1697 857.097 24.7673 855.293 25.492Z" fill="#05224D"></path><path d="M856.37 5.66786C855.813 5.30383 855.162 5.11013 854.496 5.1106C853.605 5.10947 852.749 5.45732 852.112 6.07928C851.562 6.61536 851.218 7.3277 851.141 8.09133C851.064 8.85497 851.26 9.62115 851.693 10.2555C852.066 10.8013 852.593 11.2251 853.206 11.4736C853.824 11.724 854.501 11.7894 855.155 11.6617C855.807 11.5352 856.407 11.2204 856.881 10.7565C857.351 10.2965 857.673 9.70679 857.804 9.06314C857.934 8.42138 857.867 7.75541 857.612 7.15216C857.355 6.54548 856.922 6.02879 856.37 5.66786Z" fill="#05224D"></path><path d="M1007.49 28.6768H986.905C985.252 28.6768 983.911 27.3351 983.911 25.6803V5.08609C983.911 3.43131 985.252 2.0896 986.905 2.0896H1007.49C1009.14 2.0896 1010.48 3.43131 1010.48 5.08609V25.6803C1010.48 27.3351 1009.14 28.6768 1007.49 28.6768Z" fill="#05224D"></path><path d="M1019.43 9.52453H1017.96V13.7797H1016.75V9.52453H1015.29V8.56616H1019.43V9.52453Z" fill="#05224D"></path><path d="M1025.39 11.1728C1025.39 11.5498 1025.32 11.9012 1025.19 12.2249C1025.06 12.5486 1024.88 12.8318 1024.65 13.0704C1024.41 13.311 1024.12 13.4984 1023.79 13.6347C1023.46 13.771 1023.09 13.8392 1022.68 13.8392C1022.28 13.8392 1021.91 13.771 1021.58 13.6347C1021.24 13.4984 1020.96 13.311 1020.72 13.0704C1020.48 12.8297 1020.3 12.5486 1020.17 12.2249C1020.04 11.9012 1019.97 11.5498 1019.97 11.1728C1019.97 10.7958 1020.03 10.4444 1020.17 10.1207C1020.3 9.79702 1020.48 9.51377 1020.72 9.27524C1020.96 9.03671 1021.24 8.8493 1021.58 8.713C1021.91 8.5767 1022.28 8.50854 1022.68 8.50854C1023.09 8.50854 1023.46 8.5767 1023.79 8.71513C1024.12 8.85143 1024.41 9.04097 1024.65 9.2795C1024.88 9.51802 1025.06 9.79915 1025.19 10.125C1025.33 10.4466 1025.39 10.798 1025.39 11.1728ZM1024.15 11.1728C1024.15 10.9151 1024.12 10.683 1024.05 10.4764C1023.99 10.2698 1023.89 10.0952 1023.77 9.95248C1023.64 9.80979 1023.49 9.69905 1023.31 9.62238C1023.13 9.54571 1022.92 9.50738 1022.69 9.50738C1022.45 9.50738 1022.24 9.54571 1022.06 9.62238C1021.88 9.69905 1021.73 9.80766 1021.6 9.95248C1021.48 10.0952 1021.38 10.2698 1021.31 10.4764C1021.25 10.683 1021.21 10.9151 1021.21 11.1728C1021.21 11.4326 1021.25 11.6669 1021.31 11.8735C1021.38 12.0801 1021.48 12.2547 1021.6 12.3974C1021.73 12.5401 1021.88 12.6487 1022.06 12.7254C1022.25 12.7999 1022.45 12.8382 1022.69 12.8382C1022.92 12.8382 1023.13 12.7999 1023.31 12.7254C1023.49 12.6508 1023.64 12.5401 1023.77 12.3974C1023.89 12.2547 1023.99 12.0801 1024.05 11.8735C1024.12 11.6648 1024.15 11.4326 1024.15 11.1728Z" fill="#05224D"></path><path d="M1028.3 8.56616C1028.67 8.56616 1028.98 8.60876 1029.25 8.69607C1029.51 8.78339 1029.73 8.90266 1029.9 9.05599C1030.07 9.20933 1030.19 9.38823 1030.27 9.59694C1030.36 9.80352 1030.4 10.0293 1030.4 10.2699C1030.4 10.5297 1030.35 10.7683 1030.27 10.9855C1030.19 11.2027 1030.06 11.388 1029.89 11.5435C1029.71 11.699 1029.5 11.8203 1029.23 11.9077C1028.97 11.995 1028.66 12.0376 1028.3 12.0376H1027.67V13.7797H1026.46V8.56616H1028.3ZM1028.3 11.1261C1028.61 11.1261 1028.84 11.0515 1028.98 10.9003C1029.12 10.7491 1029.18 10.5404 1029.18 10.2699C1029.18 10.1507 1029.17 10.042 1029.13 9.94408C1029.1 9.84611 1029.04 9.76306 1028.97 9.69278C1028.9 9.6225 1028.81 9.56925 1028.7 9.53092C1028.58 9.49258 1028.45 9.47342 1028.3 9.47342H1027.67V11.1261H1028.3Z" fill="#05224D"></path><path d="M1035.92 8.56616V13.7818H1035.29C1035.19 13.7818 1035.12 13.7669 1035.05 13.7371C1034.99 13.7073 1034.93 13.6562 1034.87 13.5816L1032.41 10.4722C1032.42 10.566 1032.42 10.6554 1032.43 10.7427C1032.43 10.83 1032.43 10.911 1032.43 10.9876V13.7818H1031.37V8.56616H1032C1032.06 8.56616 1032.1 8.56829 1032.13 8.57255C1032.17 8.57681 1032.2 8.58533 1032.23 8.60024C1032.26 8.61302 1032.29 8.63218 1032.31 8.65561C1032.34 8.67904 1032.37 8.71098 1032.4 8.75145L1034.88 11.8842C1034.87 11.7841 1034.86 11.6862 1034.86 11.5925C1034.85 11.4988 1034.85 11.4093 1034.85 11.3263V8.56616H1035.92Z" fill="#05224D"></path><path d="M1041.96 13.7816H1041.02C1040.92 13.7816 1040.83 13.7582 1040.77 13.7092C1040.71 13.6602 1040.66 13.5985 1040.62 13.5218L1040.31 12.6124H1038.33L1038.02 13.5218C1038 13.5878 1037.95 13.6496 1037.88 13.7028C1037.82 13.7561 1037.73 13.7838 1037.63 13.7838H1036.69L1038.71 8.56812H1039.94L1041.96 13.7816ZM1040.04 11.7882L1039.55 10.3592C1039.52 10.2676 1039.48 10.1611 1039.44 10.0397C1039.4 9.91622 1039.36 9.78418 1039.32 9.64149C1039.28 9.78631 1039.24 9.92261 1039.2 10.0461C1039.16 10.1697 1039.12 10.2783 1039.09 10.3677L1038.61 11.7882H1040.04Z" fill="#05224D"></path><path d="M1045.97 9.52453H1044.5V13.7797H1043.29V9.52453H1041.82V8.56616H1045.97V9.52453Z" fill="#05224D"></path><path d="M1050.33 12.4315C1050.35 12.4315 1050.38 12.4379 1050.41 12.4486C1050.44 12.4592 1050.47 12.4784 1050.49 12.5039L1050.97 13.0087C1050.76 13.2834 1050.5 13.49 1050.18 13.6306C1049.87 13.769 1049.49 13.8393 1049.06 13.8393C1048.67 13.8393 1048.31 13.7711 1048 13.6369C1047.69 13.5028 1047.42 13.3154 1047.2 13.079C1046.98 12.8404 1046.81 12.5593 1046.7 12.2335C1046.58 11.9076 1046.52 11.5541 1046.52 11.1729C1046.52 10.7831 1046.59 10.4275 1046.71 10.1016C1046.84 9.77579 1047.02 9.49467 1047.24 9.25827C1047.47 9.02187 1047.75 8.83872 1048.07 8.70667C1048.39 8.57463 1048.74 8.51074 1049.12 8.51074C1049.32 8.51074 1049.5 8.52778 1049.68 8.56186C1049.85 8.59593 1050.01 8.64491 1050.16 8.70455C1050.31 8.76631 1050.45 8.83872 1050.58 8.9239C1050.7 9.00909 1050.82 9.1028 1050.91 9.2029L1050.51 9.75023C1050.48 9.78431 1050.45 9.81412 1050.41 9.84181C1050.38 9.86949 1050.33 9.88227 1050.26 9.88227C1050.22 9.88227 1050.18 9.87162 1050.14 9.85459C1050.1 9.83542 1050.06 9.81199 1050.02 9.78431C1049.98 9.75662 1049.93 9.7268 1049.88 9.69486C1049.83 9.66291 1049.76 9.6331 1049.69 9.60541C1049.62 9.57772 1049.54 9.5543 1049.45 9.53513C1049.35 9.51596 1049.24 9.50744 1049.12 9.50744C1048.92 9.50744 1048.73 9.54365 1048.57 9.61819C1048.4 9.69273 1048.26 9.79921 1048.14 9.9419C1048.02 10.0846 1047.93 10.2592 1047.86 10.4637C1047.79 10.6703 1047.76 10.9067 1047.76 11.1707C1047.76 11.4391 1047.8 11.6755 1047.87 11.8821C1047.94 12.0886 1048.04 12.2654 1048.17 12.406C1048.29 12.5465 1048.44 12.6551 1048.61 12.7297C1048.77 12.8042 1048.95 12.8404 1049.14 12.8404C1049.25 12.8404 1049.35 12.834 1049.44 12.8234C1049.53 12.8127 1049.62 12.7957 1049.7 12.7702C1049.78 12.7446 1049.85 12.7126 1049.92 12.6701C1049.99 12.6275 1050.06 12.5763 1050.13 12.5103C1050.16 12.4869 1050.19 12.4677 1050.22 12.4507C1050.26 12.4337 1050.29 12.4315 1050.33 12.4315Z" fill="#05224D"></path><path d="M1056.41 8.56616V13.7818H1055.19V11.5754H1053.08V13.7797H1051.86V8.56616H1053.08V10.7448H1055.19V8.56616H1056.41Z" fill="#05224D"></path><path d="M1061 9.49684V10.8173H1062.78V11.7522H1061V13.7818H1059.79V8.56616H1063.14V9.49684H1061Z" fill="#05224D"></path><path d="M1068.46 13.7818H1067.37C1067.16 13.7818 1067.02 13.7051 1066.93 13.5518L1066.06 12.0376C1066.02 11.9737 1065.98 11.9268 1065.93 11.897C1065.88 11.8672 1065.81 11.8523 1065.71 11.8523H1065.41V13.7818H1064.2V8.56616H1065.89C1066.27 8.56616 1066.59 8.6045 1066.86 8.6833C1067.12 8.75997 1067.34 8.86858 1067.51 9.00701C1067.68 9.14544 1067.8 9.30943 1067.88 9.49684C1067.95 9.68639 1067.99 9.89084 1067.99 10.1123C1067.99 10.2827 1067.97 10.4424 1067.92 10.5915C1067.88 10.7427 1067.81 10.8812 1067.72 11.0089C1067.63 11.1367 1067.52 11.2517 1067.39 11.3518C1067.26 11.4519 1067.12 11.535 1066.95 11.5989C1067.02 11.6393 1067.1 11.6904 1067.17 11.7501C1067.24 11.8097 1067.3 11.8821 1067.35 11.9673L1068.46 13.7818ZM1065.89 11.0175C1066.06 11.0175 1066.2 10.9962 1066.31 10.9557C1066.43 10.9131 1066.52 10.8556 1066.6 10.7811C1066.67 10.7065 1066.72 10.6213 1066.76 10.5212C1066.79 10.4233 1066.81 10.3146 1066.81 10.2018C1066.81 9.97177 1066.73 9.79287 1066.59 9.66509C1066.44 9.53731 1066.21 9.47129 1065.89 9.47129H1065.41V11.0175H1065.89Z" fill="#05224D"></path><path d="M1070.47 9.49684V10.7129H1072.11V11.6074H1070.47V12.849H1072.61V13.7797H1069.26V8.56616H1072.61V9.49684H1070.47Z" fill="#05224D"></path><path d="M1074.93 13.7818H1073.72V8.56616H1074.93V13.7818Z" fill="#05224D"></path><path d="M1078.8 11.0792H1080.65V13.2813C1080.39 13.4772 1080.1 13.6199 1079.8 13.7072C1079.5 13.7945 1079.18 13.8393 1078.85 13.8393C1078.42 13.8393 1078.03 13.7711 1077.68 13.6369C1077.33 13.5028 1077.03 13.3154 1076.78 13.079C1076.53 12.8404 1076.34 12.5593 1076.2 12.2335C1076.07 11.9076 1076 11.5541 1076 11.1729C1076 10.7831 1076.06 10.4275 1076.19 10.1016C1076.32 9.77579 1076.5 9.49467 1076.74 9.25827C1076.99 9.02187 1077.27 8.83872 1077.61 8.70667C1077.95 8.57463 1078.33 8.51074 1078.75 8.51074C1078.97 8.51074 1079.17 8.52778 1079.36 8.56398C1079.55 8.60019 1079.73 8.64917 1079.89 8.71093C1080.05 8.7727 1080.2 8.84724 1080.33 8.93242C1080.47 9.01761 1080.59 9.11132 1080.69 9.21141L1080.34 9.74384C1080.28 9.8269 1080.21 9.87801 1080.13 9.89718C1080.04 9.91635 1079.95 9.89505 1079.85 9.83329C1079.75 9.77579 1079.66 9.7268 1079.58 9.68421C1079.49 9.64161 1079.41 9.60754 1079.32 9.58198C1079.23 9.55643 1079.14 9.53726 1079.04 9.52448C1078.94 9.5117 1078.83 9.50744 1078.71 9.50744C1078.48 9.50744 1078.28 9.54791 1078.1 9.62671C1077.92 9.70551 1077.76 9.81838 1077.63 9.96533C1077.5 10.1102 1077.41 10.2848 1077.34 10.4892C1077.27 10.6937 1077.23 10.9216 1077.23 11.1707C1077.23 11.4476 1077.27 11.6925 1077.35 11.9076C1077.42 12.1227 1077.53 12.3037 1077.67 12.4507C1077.81 12.5976 1077.98 12.7105 1078.17 12.7893C1078.36 12.866 1078.58 12.9065 1078.82 12.9065C1078.96 12.9065 1079.09 12.8915 1079.21 12.8639C1079.33 12.8362 1079.45 12.7978 1079.56 12.7489V11.9587H1079.04C1078.96 11.9587 1078.91 11.9374 1078.86 11.897C1078.82 11.8565 1078.8 11.8054 1078.8 11.7436V11.0792H1078.8Z" fill="#05224D"></path><path d="M1086.37 8.56616V13.7818H1085.16V11.5754H1083.04V13.7797H1081.83V8.56616H1083.04V10.7448H1085.16V8.56616H1086.37Z" fill="#05224D"></path><path d="M1091.49 9.52453H1090.02V13.7797H1088.81V9.52453H1087.34V8.56616H1091.49V9.52453Z" fill="#05224D"></path><path fill-rule="evenodd" clip-rule="evenodd" d="M1055.6 20.4883C1055.3 20.3264 1055.07 20.1049 1054.9 19.8195C1054.73 19.5341 1054.65 19.2147 1054.65 18.8612C1054.65 18.5076 1054.73 18.1882 1054.9 17.9028C1055.07 17.6174 1055.3 17.3938 1055.6 17.2341C1055.9 17.0722 1056.23 16.9934 1056.6 16.9934C1056.97 16.9934 1057.31 17.0743 1057.6 17.2341C1057.9 17.3938 1058.13 17.6174 1058.3 17.9007C1058.47 18.1839 1058.56 18.5055 1058.56 18.8612C1058.56 19.2168 1058.47 19.5384 1058.3 19.8217C1058.13 20.1049 1057.9 20.3285 1057.6 20.4883C1057.31 20.6501 1056.97 20.7289 1056.6 20.7289C1056.23 20.731 1055.9 20.6501 1055.6 20.4883ZM1057.26 19.975C1057.45 19.8664 1057.6 19.713 1057.71 19.5192C1057.82 19.3233 1057.88 19.1061 1057.88 18.8633C1057.88 18.6205 1057.82 18.4033 1057.71 18.2073C1057.6 18.0114 1057.45 17.8602 1057.26 17.7516C1057.06 17.643 1056.85 17.5876 1056.6 17.5876C1056.36 17.5876 1056.14 17.643 1055.95 17.7516C1055.76 17.8602 1055.6 18.0135 1055.49 18.2073C1055.38 18.4033 1055.33 18.6205 1055.33 18.8633C1055.33 19.1061 1055.38 19.3233 1055.49 19.5192C1055.6 19.7152 1055.76 19.8664 1055.95 19.975C1056.14 20.0836 1056.36 20.139 1056.6 20.139C1056.85 20.139 1057.06 20.0836 1057.26 19.975ZM1021.69 17.0465V20.6798H1021.14L1019.13 18.22V20.6798H1018.47V17.0465H1019.02L1021.02 19.5063V17.0465H1021.69ZM1015.66 17.0467H1016.34V20.68H1015.66V17.0467ZM1023.35 17.6173H1024.55V20.6798H1025.23V17.6173H1026.43V17.0465H1023.35V17.6173ZM1030.8 20.1154V20.6798H1028.08V17.0465H1030.73V17.613H1028.76V18.5586H1030.51V19.1145H1028.76V20.1154H1030.8ZM1034.34 19.6128L1035.08 20.6777V20.6798H1035.8L1034.97 19.485C1035.22 19.3892 1035.41 19.2422 1035.54 19.0442C1035.68 18.8483 1035.74 18.6119 1035.74 18.3393C1035.74 18.073 1035.68 17.843 1035.56 17.6492C1035.43 17.4554 1035.25 17.3063 1035.02 17.202C1034.79 17.0976 1034.51 17.0465 1034.2 17.0465H1032.7V20.6755H1033.38V19.6171H1034.2H1034.2C1034.26 19.6171 1034.31 19.6171 1034.34 19.6128ZM1034.17 17.6152C1034.46 17.6152 1034.68 17.679 1034.84 17.8026C1034.99 17.9282 1035.06 18.1071 1035.06 18.3371C1035.06 18.5693 1034.99 18.7482 1034.84 18.8738C1034.68 18.9995 1034.46 19.0634 1034.17 19.0634H1033.38V17.6152H1034.17ZM1040.87 17.0465V20.6798H1040.31L1038.31 18.22V20.6798H1037.64V17.0465H1038.2L1040.2 19.5063V17.0465H1040.87ZM1043.53 19.8386H1045.34L1045.71 20.6798H1046.41L1044.77 17.0465H1044.11L1042.47 20.6798H1043.17L1043.53 19.8386ZM1044.43 17.7195L1045.12 19.3083H1043.76L1044.43 17.7195ZM1048.57 17.6173H1047.37V17.0465H1050.45V17.6173H1049.25V20.6798H1048.57V17.6173ZM1052.78 17.0465H1052.11V20.6798H1052.78V17.0465ZM1063.65 20.6798V17.0465H1062.98V19.5063L1060.97 17.0465H1060.42V20.6798H1061.09V18.22L1063.09 20.6798H1063.65ZM1068.12 19.8386H1066.31L1065.95 20.6798H1065.25L1066.89 17.0465H1067.55L1069.19 20.6798H1068.49L1068.12 19.8386ZM1067.9 19.3083L1067.22 17.7195L1066.54 19.3083H1067.9ZM1071.47 17.0465H1070.8V20.6798H1073.37V20.109H1071.47V17.0465ZM1077.63 17.0465H1078.3V20.6798H1077.63V17.0465ZM1083.66 20.6798V17.0465H1082.99V19.5063L1080.99 17.0465H1080.43V20.6798H1081.1V18.22L1083.1 20.6798H1083.66ZM1086.47 20.4883C1086.17 20.3264 1085.94 20.1049 1085.77 19.8217C1085.6 19.5384 1085.52 19.219 1085.52 18.8612C1085.52 18.5034 1085.6 18.1839 1085.77 17.9007C1085.94 17.6174 1086.17 17.3938 1086.47 17.2341C1086.77 17.0722 1087.1 16.9934 1087.46 16.9934C1087.76 16.9934 1088.03 17.0445 1088.28 17.1489C1088.52 17.2532 1088.73 17.4023 1088.9 17.6004L1088.46 18.0093C1088.2 17.726 1087.88 17.5833 1087.49 17.5833C1087.24 17.5833 1087.02 17.6387 1086.83 17.7473C1086.63 17.8559 1086.47 18.0071 1086.36 18.201C1086.25 18.3948 1086.2 18.6141 1086.2 18.859C1086.2 19.1039 1086.25 19.3233 1086.36 19.5171C1086.47 19.7109 1086.63 19.8621 1086.83 19.9707C1087.02 20.0794 1087.24 20.1347 1087.49 20.1347C1087.88 20.1347 1088.2 19.992 1088.46 19.7045L1088.9 20.1198C1088.73 20.3179 1088.52 20.467 1088.27 20.5713C1088.03 20.6757 1087.76 20.7268 1087.46 20.7268C1087.09 20.731 1086.76 20.6501 1086.47 20.4883ZM1090.48 20.284C1090.48 20.4075 1090.52 20.5119 1090.61 20.5929C1090.69 20.6738 1090.79 20.7143 1090.91 20.7143C1091.02 20.7143 1091.12 20.6738 1091.21 20.5929C1091.29 20.5119 1091.33 20.4097 1091.33 20.284C1091.33 20.1561 1091.29 20.0517 1091.21 19.9729C1091.13 19.8941 1091.03 19.8536 1090.91 19.8536C1090.79 19.8536 1090.68 19.8941 1090.6 19.9729C1090.52 20.0517 1090.48 20.1561 1090.48 20.284Z" fill="#05224D"></path><path d="M986.409 10.0784H999.895L1000.73 6.61548H986.409V10.0784Z" fill="url(#paint0_linear_2_670)"></path><path d="M1007.95 14.6211H1005.3H1003.26H999.231V18.084H1003.26H1005.31H1007.95C1007.96 18.084 1007.97 18.0819 1007.98 18.0819V14.6232C1007.97 14.6232 1007.96 14.6211 1007.95 14.6211Z" fill="white"></path><path d="M1007.92 6.61548H1004.12H1004.1H1000.67C999.404 6.61548 998.333 6.73687 997.454 6.97753C996.575 7.21818 995.856 7.5994 995.3 8.12331C994.745 8.64722 994.338 9.32446 994.081 10.1529C993.823 10.9835 993.695 11.9972 993.695 13.192V25.1162H997.505V18.8229V17.0319V13.9672V13.5796V13.4689C997.505 12.8214 997.558 12.2762 997.667 11.8375C997.776 11.3967 997.954 11.0495 998.203 10.7918C998.452 10.5341 998.789 10.351 999.212 10.2445C999.636 10.1359 1000.17 10.0826 1000.82 10.0826H1004.1H1004.13H1007.92C1007.95 10.0826 1007.96 10.0805 1007.98 10.0784V6.61974C1007.96 6.61974 1007.94 6.61548 1007.92 6.61548Z" fill="white"></path><defs><linearGradient id="paint0_linear_2_670" x1="999.103" y1="9.05311" x2="986.443" y2="8.42009" gradientUnits="userSpaceOnUse"><stop stop-color="white" stop-opacity="0"></stop><stop offset="1" stop-color="white"></stop></linearGradient></defs></svg>